DBRep_DrawableShape

CASCADE Topology V3, (c) Open Cascade
Locations 0
Curve2ds 20
7 0 0  3 25 23  -1.3112801951510318e-08 0.5  -0.00026157088165754561 0.54795486452349063  0.013959688815030234 0.64353700235316058  0.07439688037877995 0.77554147260306427  0.16995309416261972 0.88515360420223266  0.2926466467674439 0.96358153259167367  0.43258880323191135 1.0044478446605152  0.57847790162415202 1.0044481315179732  0.71830123057693285 0.96358067201929942  0.84147009322850463 0.88515675963427287  0.93524389433704014 0.775529711447277  1.0023354265552593 0.64358089154427112  0.99883236615771687 0.50000000000000022  1.0023354265552595 0.35641910845572877  0.93524389433704014 0.22447028855272325  0.84147009322850475 0.1148432403657271  0.71830123057693274 0.036419327980700814  0.57847790162415236 -0.0044481315179731949  0.43258880323191157 -0.0044478446605150995  0.29264664676744395 0.036418467408326077  0.16995309416261972 0.11484639579776774  0.074396880378779839 0.22445852739693534  0.013959688815030241 0.35646299764683975  -0.00026157088165751114 0.45204513547650943  -1.3112801951510318e-08 0.49999999999999989 
 0 4 0.28559933214452665 1 0.5711986642890533 1 0.8567979964335799 1 1.1423973285781066 1 1.4279966607226333 1 1.7135959928671598 1 1.9991953250116865 1 2.2847946571562132 1 2.5703939893007397 1 2.8559933214452666 1 3.1415926535897931 1 3.4271919857343196 1 3.7127913178788465 1 3.998390650023373 1 4.2839899821678999 1 4.5695893143124264 1 4.8551886464569529 1 5.1407879786014794 1 5.4263873107460068 1 5.7119866428905333 1 5.9975859750350597 1 6.2831853071795862 4
7 0 0  3 25 23  0 0  0.018236883605415859 0  0.052032836186234901 0  0.097121204219536142 0  0.13929136758237498 0  0.18032252653847691 0  0.22192627528632003 0  0.26579780337008635 0  0.31435112414349331 0  0.36973195263160252 0  0.41571996552189289 0  0.4588121810633094 0  0.49999999999999989 0  0.54118781893669055 0  0.58428003447810706 0  0.63026804736839714 0  0.6856488758565068 0  0.73420219662991371 0  0.77807372471368008 0  0.81967747346152275 0  0.86070863241762685 0  0.90287879578045682 0  0.94796716381376622 0  0.98176311639458624 -0  1 0 
 0 4 0.28559933214452665 1 0.5711986642890533 1 0.8567979964335799 1 1.1423973285781066 1 1.4279966607226333 1 1.7135959928671598 1 1.9991953250116865 1 2.2847946571562132 1 2.5703939893007397 1 2.8559933214452666 1 3.1415926535897931 1 3.4271919857343196 1 3.7127913178788465 1 3.998390650023373 1 4.2839899821678999 1 4.5695893143124264 1 4.8551886464569529 1 5.1407879786014794 1 5.4263873107460068 1 5.7119866428905333 1 5.9975859750350597 1 6.2831853071795862 4
7 0 0  3 25 23  0.26212326977795858 0.5  0.26199733455884083 0.52308937867895411  0.26884462642435031 0.56911040693589299  0.2979439295121119 0.63266811335839235  0.34395278663492779 0.6854443236438118  0.4030263002528256 0.72320591791758304  0.47041017863905088 0.74288228993835215  0.540636942183779 0.7428824280549029  0.60801949725771953 0.7232055035679309  0.6670983041247569 0.68544584292587019  0.71308731156329863 0.63266245057981152  0.74226072013901745 0.56913153876815936  0.75225508566972699 0.49999999999999989  0.74226072013901745 0.43086846123184086  0.71308731156329863 0.36733754942018843  0.6670983041247569 0.31455415707412976  0.60801949725771942 0.27679449643206933  0.540636942183779 0.2571175719450971  0.47041017863905116 0.25711771006164791  0.4030263002528256 0.27679408208241707  0.34395278663492779 0.31455567635618809  0.29794392951211196 0.36733188664160737  0.26884462642435036 0.43088959306410729  0.26199733455884089 0.47691062132104584  0.26212326977795858 0.49999999999999994 
 0 4 0.28559933214452665 1 0.5711986642890533 1 0.8567979964335799 1 1.1423973285781066 1 1.4279966607226333 1 1.7135959928671598 1 1.9991953250116865 1 2.2847946571562132 1 2.5703939893007397 1 2.8559933214452666 1 3.1415926535897931 1 3.4271919857343196 1 3.7127913178788465 1 3.998390650023373 1 4.2839899821678999 1 4.5695893143124264 1 4.8551886464569529 1 5.1407879786014794 1 5.4263873107460068 1 5.7119866428905333 1 5.9975859750350597 1 6.2831853071795862 4
7 0 0  3 25 23  0 0  0.01823688360541581 0  0.052032836186234797 0  0.097121204219536017 0  0.13929136758237481 0  0.18032252653847677 0  0.22192627528632008 0  0.26579780337008629 0  0.31435112414349342 0  0.36973195263160263 0  0.41571996552189305 0  0.4588121810633094 0  0.49999999999999983 0  0.54118781893669066 0  0.58428003447810684 0  0.63026804736839703 0  0.68564887585650669 0  0.73420219662991348 0  0.77807372471368008 0  0.81967747346152287 0  0.86070863241762674 0  0.90287879578045704 0  0.94796716381376622 0  0.98176311639458624 -0  1 0 
 0 4 0.28559933214452665 1 0.5711986642890533 1 0.8567979964335799 1 1.1423973285781066 1 1.4279966607226333 1 1.7135959928671598 1 1.9991953250116865 1 2.2847946571562132 1 2.5703939893007397 1 2.8559933214452666 1 3.1415926535897931 1 3.4271919857343196 1 3.7127913178788465 1 3.998390650023373 1 4.2839899821678999 1 4.5695893143124264 1 4.8551886464569529 1 5.1407879786014794 1 5.4263873107460068 1 5.7119866428905333 1 5.9975859750350597 1 6.2831853071795862 4
7 0 0  3 25 23  1.000000013112802 0.5  1.0002615708816573 0.45204513547650943  0.9860403111849696 0.35646299764683981  0.92560311962121999 0.2244585273969352  0.83004690583738017 0.11484639579776774  0.70735335323255599 0.036418467408326133  0.56741119676808849 -0.0044478446605149746  0.4215220983758477 -0.0044481315179732868  0.28169876942306721 0.036419327980700821  0.15852990677149528 0.11484324036572702  0.064756105662959765 0.22447028855272311  -0.0023354265552595465 0.35641910845572877  0.0011676338422831746 0.5  -0.0023354265552595027 0.64358089154427112  0.064756105662959598 0.77552971144727667  0.15852990677149514 0.88515675963427287  0.28169876942306699 0.96358067201929931  0.42152209837584775 1.0044481315179732  0.56741119676808827 1.0044478446605152  0.70735335323255621 0.96358153259167401  0.83004690583738006 0.88515360420223221  0.92560311962121999 0.77554147260306461  0.98604031118496971 0.64353700235316047  1.0002615708816576 0.54795486452349063  1.000000013112802 0.50000000000000011 
 0 4 0.28559933214452665 1 0.5711986642890533 1 0.8567979964335799 1 1.1423973285781066 1 1.4279966607226333 1 1.7135959928671598 1 1.9991953250116865 1 2.2847946571562132 1 2.5703939893007397 1 2.8559933214452666 1 3.1415926535897931 1 3.4271919857343196 1 3.7127913178788465 1 3.998390650023373 1 4.2839899821678999 1 4.5695893143124264 1 4.8551886464569529 1 5.1407879786014794 1 5.4263873107460068 1 5.7119866428905333 1 5.9975859750350597 1 6.2831853071795862 4
7 0 0  3 25 23  1 1  0.98176311639458413 1.0000000053119877  0.94796716381376533 1.0000000102611724  0.90287879578046371 1.0000000082719762  0.86070863241762519 1.0000000088049805  0.8196774734615232 1.0000000086621623  0.77807372471367975 1.0000000087004299  0.73420219662991393 1.0000000086901766  0.6856488758565068 1.0000000086929239  0.63026804736839737 1.0000000086921879  0.58428003447810695 1.0000000086923855  0.54118781893669066 1.0000000086923313  0.5 1.0000000086923497  0.4588121810633094 1.0000000086923315  0.41571996552189294 1.0000000086923853  0.36973195263160252 1.0000000086921881  0.31435112414349331 1.0000000086929237  0.26579780337008624 1.0000000086901768  0.22192627528632017 1.0000000087004302  0.18032252653847688 1.0000000086621625  0.13929136758237509 1.0000000088049799  0.097121204219536253 1.0000000082719769  0.052032836186234971 1.0000000102611724  0.018236883605415893 1.000000005311988  0 1 
 0 4 0.28559933214452665 1 0.5711986642890533 1 0.8567979964335799 1 1.1423973285781066 1 1.4279966607226333 1 1.7135959928671598 1 1.9991953250116865 1 2.2847946571562132 1 2.5703939893007397 1 2.8559933214452666 1 3.1415926535897931 1 3.4271919857343196 1 3.7127913178788465 1 3.998390650023373 1 4.2839899821678999 1 4.5695893143124264 1 4.8551886464569529 1 5.1407879786014794 1 5.4263873107460068 1 5.7119866428905333 1 5.9975859750350597 1 6.2831853071795862 4
7 0 0  3 25 23  0.25107636950717604 0.5  0.25106807791728736 0.4884762199076868  0.25273748242402427 0.46543369522842221  0.26013968897479794 0.43156954444841444  0.27231848388768781 0.39909952132547111  0.28901812429301621 0.36868325134396907  0.30990074842327853 0.34094028928537717  0.3345406849842455 0.31643530345200416  0.36243648631969333 0.29566717105538326  0.39302023406093989 0.2790586643158301  0.42566934209713292 0.26694788642880057  0.459719165851593 0.25958137739953868  0.49447654986460871 0.25710909824715067  0.52923393387762452 0.25958137739953863  0.5632837576320846 0.26694788642880052  0.59593286566827752 0.2790586643158301  0.62651661340952403 0.29566717105538337  0.65441241474497203 0.31643530345200421  0.67905235130593888 0.34094028928537734  0.69993497543620153 0.36868325134396912  0.71663461584152943 0.39909952132547116  0.72881341075441941 0.43156954444841467  0.73621561730519325 0.46543369522842232  0.73788502181193005 0.48847621990768686  0.73787673022204137 0.50000000000000011 
 0 4 0.14279966607226333 1 0.28559933214452665 1 0.42839899821678995 1 0.5711986642890533 1 0.71399833036131666 1 0.8567979964335799 1 0.99959766250584325 1 1.1423973285781066 1 1.2851969946503699 1 1.4279966607226333 1 1.5707963267948966 1 1.7135959928671598 1 1.8563956589394233 1 1.9991953250116865 1 2.14199499108395 1 2.2847946571562132 1 2.4275943232284765 1 2.5703939893007397 1 2.7131936553730034 1 2.8559933214452666 1 2.9987929875175299 1 3.1415926535897931 4
7 0 0  3 25 23  0.49999421860992715 1  0.50686555519431309 1.0000000053119924  0.5206051427298557 1.0000000102609119  0.54142787604500786 1.000000008270592  0.56268069331861637 1.0000000088018139  0.58460089587448516 1.0000000086567213  0.60746003211381805 1.0000000086923473  0.63155066668986137 1.0000000086795133  0.65731095032194531 1.0000000086791503  0.68495248460431235 1.0000000086780141  0.70992765061028362 1.0000000086796399  0.73361962430402705 1.0000000086815644  0.75612103167042688 1.0000000086839873  0.7777946355309 1.0000000086863512  0.79887792384120171 1.0000000086884908  0.8196063892306048 1.000000008689907  0.84019439909515947 1.0000000086917493  0.86085225870511517 1.0000000086896619  0.88179263920768647 1.0000000087002499  0.90324023255989272 1.0000000086621164  0.92544067972092792 1.0000000088049739  0.94867563064582694 1.0000000082719767  0.97326638416924505 1.0000000102611724  0.9908470918543808 1.0000000053119869  0.99999999999999989 1 
 0 4 0.14279966607226333 1 0.28559933214452665 1 0.42839899821678995 1 0.5711986642890533 1 0.71399833036131666 1 0.8567979964335799 1 0.99959766250584325 1 1.1423973285781066 1 1.2851969946503699 1 1.4279966607226333 1 1.5707963267948966 1 1.7135959928671598 1 1.8563956589394233 1 1.9991953250116865 1 2.14199499108395 1 2.2847946571562132 1 2.4275943232284765 1 2.5703939893007397 1 2.7131936553730034 1 2.8559933214452666 1 2.9987929875175299 1 3.1415926535897931 4
7 0 0  3 25 23  0.73787673022204137 0.50000000000000011  0.73788502181192994 0.51152378009231336  0.73621561730519314 0.53456630477157785  0.72881341075441974 0.56843045555158567  0.71663461584152932 0.60090047867452878  0.69993497543620131 0.63131674865603105  0.67905235130593911 0.65905971071462277  0.6544124147449718 0.68356469654799601  0.62651661340952391 0.70433282894461668  0.59593286566827763 0.72094133568417007  0.56328375763208438 0.73305211357119948  0.52923393387762441 0.74041862260046121  0.49447654986460854 0.74289090175284933  0.459719165851593 0.74041862260046132  0.42566934209713286 0.73305211357119959  0.39302023406094 0.72094133568416996  0.36243648631969322 0.70433282894461646  0.3345406849842455 0.68356469654799612  0.30990074842327847 0.65905971071462277  0.2890181242930161 0.63131674865603082  0.27231848388768792 0.60090047867452911  0.26013968897479794 0.56843045555158533  0.25273748242402422 0.53456630477157796  0.25106807791728741 0.51152378009231336  0.25107636950717604 0.50000000000000011 
 3.1415926535897931 4 3.2843923196620564 1 3.4271919857343196 1 3.5699916518065828 1 3.7127913178788465 1 3.8555909839511098 1 3.998390650023373 1 4.1411903160956367 1 4.2839899821678999 1 4.4267896482401632 1 4.5695893143124264 1 4.7123889803846897 1 4.8551886464569529 1 4.9979883125292162 1 5.1407879786014794 1 5.2835876446737426 1 5.4263873107460068 1 5.5691869768182691 1 5.7119866428905333 1 5.8547863089627965 1 5.9975859750350597 1 6.140385641107323 1 6.2831853071795862 4
7 0 0  3 25 23  0 1  0.0091529079260473829 1.0000000053119869  0.026733685902023841 1.0000000102611721  0.051324700370035017 1.0000000082719771  0.074560011855488051 1.0000000088049736  0.096760860538299229 1.0000000086621168  0.11820883699406345 1.0000000087002487  0.13914952240294096 1.000000008689661  0.15980754917986764 1.0000000086917473  0.18039552945808468 1.0000000086899057  0.20112371048675795 1.0000000086884875  0.22220640161204977 1.0000000086863472  0.24387904061180868 1.0000000086839818  0.26637904942355317 1.0000000086815586  0.29006916254947496 1.000000008679633  0.31504182480768245 1.0000000086780085  0.34268057612397201 1.0000000086791421  0.36844022686182748 1.0000000086795087  0.39252995981629241 1.0000000086923437  0.41538851748241529 1.0000000086567189  0.43730826605820505 1.0000000088018126  0.4585607794672541 1.0000000082705918  0.47938333333132671 1.0000000102609121  0.49312288245603869 1.0000000053119924  0.49999421860992715 1 
 3.1415926535897931 4 3.2843923196620564 1 3.4271919857343196 1 3.5699916518065828 1 3.7127913178788465 1 3.8555909839511098 1 3.998390650023373 1 4.1411903160956367 1 4.2839899821678999 1 4.4267896482401632 1 4.5695893143124264 1 4.7123889803846897 1 4.8551886464569529 1 4.9979883125292162 1 5.1407879786014794 1 5.2835876446737426 1 5.4263873107460068 1 5.5691869768182691 1 5.7119866428905333 1 5.8547863089627965 1 5.9975859750350597 1 6.140385641107323 1 6.2831853071795862 4
1 1 -3.3827107781547738e-17 0 1 
1 0 -3.3827107781547738e-17 0 1 
1 1 -1.3819047309026051e-17 0 1 
1 0 -1.3819047309026051e-17 0 1 
7 0 0  3 25 23  -1.3112801951510318e-08 0.5  -0.00026157088165754561 0.54795486452349063  0.013959688815030234 0.64353700235316058  0.07439688037877995 0.77554147260306427  0.16995309416261972 0.88515360420223266  0.2926466467674439 0.96358153259167367  0.43258880323191135 1.0044478446605152  0.57847790162415202 1.0044481315179732  0.71830123057693285 0.96358067201929942  0.84147009322850463 0.88515675963427287  0.93524389433704014 0.775529711447277  1.0023354265552593 0.64358089154427112  0.99883236615771687 0.50000000000000022  1.0023354265552595 0.35641910845572877  0.93524389433704014 0.22447028855272325  0.84147009322850475 0.1148432403657271  0.71830123057693274 0.036419327980700814  0.57847790162415236 -0.0044481315179731949  0.43258880323191157 -0.0044478446605150995  0.29264664676744395 0.036418467408326077  0.16995309416261972 0.11484639579776774  0.074396880378779839 0.22445852739693534  0.013959688815030241 0.35646299764683975  -0.00026157088165751114 0.45204513547650943  -1.3112801951510318e-08 0.49999999999999989 
 0 4 0.28559933214452665 1 0.5711986642890533 1 0.8567979964335799 1 1.1423973285781066 1 1.4279966607226333 1 1.7135959928671598 1 1.9991953250116865 1 2.2847946571562132 1 2.5703939893007397 1 2.8559933214452666 1 3.1415926535897931 1 3.4271919857343196 1 3.7127913178788465 1 3.998390650023373 1 4.2839899821678999 1 4.5695893143124264 1 4.8551886464569529 1 5.1407879786014794 1 5.4263873107460068 1 5.7119866428905333 1 5.9975859750350597 1 6.2831853071795862 4
7 0 0  3 25 23  1 1  0.98176311639458413 1.0000000290262208  0.94796716381376533 1.0000000560699804  0.90287879578046371 1.0000000452004496  0.86070863241762519 1.0000000481129319  0.8196774734615232 1.0000000473325346  0.77807372471367975 1.0000000475416413  0.73420219662991393 1.0000000474856114  0.6856488758565068 1.000000047500625  0.63026804736839737 1.0000000474966011  0.58428003447810695 1.0000000474976811  0.54118781893669066 1.0000000474973862  0.5 1.0000000474974848  0.4588121810633094 1.0000000474973865  0.41571996552189294 1.0000000474976809  0.36973195263160252 1.0000000474966015  0.31435112414349331 1.0000000475006248  0.26579780337008624 1.0000000474856117  0.22192627528632017 1.0000000475416415  0.18032252653847688 1.0000000473325346  0.13929136758237506 1.0000000481129319  0.097121204219536281 1.0000000452004498  0.052032836186234818 1.0000000560699804  0.018236883605415782 1.0000000290262208  0 1 
 0 4 0.28559933214452665 1 0.5711986642890533 1 0.8567979964335799 1 1.1423973285781066 1 1.4279966607226333 1 1.7135959928671598 1 1.9991953250116865 1 2.2847946571562132 1 2.5703939893007397 1 2.8559933214452666 1 3.1415926535897931 1 3.4271919857343196 1 3.7127913178788465 1 3.998390650023373 1 4.2839899821678999 1 4.5695893143124264 1 4.8551886464569529 1 5.1407879786014794 1 5.4263873107460068 1 5.7119866428905333 1 5.9975859750350597 1 6.2831853071795862 4
1 1 -2.2551405187698492e-17 0 1 
1 0 -2.2551405187698492e-17 0 1 
7 0 0  3 25 23  1 0  0.98176311639458413 -2.6661080619802279e-19  0.94796716381376533 1.4101598202472916e-17  0.90287879578046371 4.9923560631319823e-17  0.86070863241762519 -6.8079068745700433e-17  0.8196774734615232 -2.6191938440080043e-17  0.77807372471367975 -2.713265257980275e-17  0.73420219662991371 -1.6651748620793698e-17  0.6856488758565068 -9.0294726113686092e-18  0.63026804736839737 -1.3943029023394427e-18  0.58428003447810695 9.0479199578573884e-18  0.54118781893669066 8.2490365137795169e-18  0.5 4.9607525135632672e-17  0.4588121810633094 -6.6422368201963496e-17  0.41571996552189294 -3.0150948947299316e-17  0.36973195263160252 -3.4688538731568087e-17  0.31435112414349331 -2.8291404952365496e-17  0.26579780337008624 -2.4824156388115462e-17  0.22192627528632017 -2.0572090527526544e-17  0.18032252653847688 -1.6529408637340622e-17  0.13929136758237509 -1.2434008161881559e-17  0.097121204219536253 -8.3400980571121385e-18  0.052032836186234971 -4.292945054857231e-18  0.018236883605415893 -1.4691638661888387e-18  0 0 
 0 4 0.28559933214452665 1 0.5711986642890533 1 0.8567979964335799 1 1.1423973285781066 1 1.4279966607226333 1 1.7135959928671598 1 1.9991953250116865 1 2.2847946571562132 1 2.5703939893007397 1 2.8559933214452666 1 3.1415926535897931 1 3.4271919857343196 1 3.7127913178788465 1 3.998390650023373 1 4.2839899821678999 1 4.5695893143124264 1 4.8551886464569529 1 5.1407879786014794 1 5.4263873107460068 1 5.7119866428905333 1 5.9975859750350597 1 6.2831853071795862 4
7 0 0  3 25 23  1.000000013112802 0.5  1.0002615708816573 0.54795486452349063  0.98604028352046713 0.64353700235316058  0.92560321644697829 0.77554147260306427  0.83004654619884866 0.88515360420223266  0.70735469496092396 0.96358153259167367  0.56740618949314825 1.0044478446605152  0.42154078574724119 1.0044481315179732  0.2816290272124336 0.96358067201929942  0.15879018824263622 0.88515675963427287  0.063784721989029569 0.775529711447277  0.0012898266693203047 0.64358089154427112  -0.012361995382106002 0.50000000000000022  0.0012898266693202635 0.35641910845572877  0.063784721989029528 0.22447028855272325  0.1587901882426361 0.1148432403657271  0.28162902721243338 0.036419327980700814  0.42154078574724119 -0.0044481315179731949  0.56740618949314803 -0.0044478446605150995  0.70735469496092418 0.036418467408326077  0.83004654619884843 0.11484639579776774  0.92560321644697852 0.22445852739693534  0.98604028352046724 0.35646299764683975  1.0002615708816576 0.45204513547650943  1.000000013112802 0.49999999999999989 
 0 4 0.28559933214452665 1 0.5711986642890533 1 0.8567979964335799 1 1.1423973285781066 1 1.4279966607226333 1 1.7135959928671598 1 1.9991953250116865 1 2.2847946571562132 1 2.5703939893007397 1 2.8559933214452666 1 3.1415926535897931 1 3.4271919857343196 1 3.7127913178788465 1 3.998390650023373 1 4.2839899821678999 1 4.5695893143124264 1 4.8551886464569529 1 5.1407879786014794 1 5.4263873107460068 1 5.7119866428905333 1 5.9975859750350597 1 6.2831853071795862 4
Curves 10
2 0 0 0 0 0 1 1 0 -0 -0 1 0 0.67500001750886396
2 0 0 0 0 0 1 1 0 -0 -0 1 0 0.325000000884756
2 0 0 3.0000000260770299 0 0 -1 1 0 0 0 -1 0 0.67500001750886396
2 0 5.9701534528816003e-17 3.0000000260770299 0 0 1 -1 -1.8369701465288501e-16 0 1.8369701465288501e-16 -1 0 0.325000000884756
2 0 5.9701534528816003e-17 3.0000000260770299 0 0 1 -1 -1.8369701465288501e-16 0 1.8369701465288501e-16 -1 0 0.325000000884756
7 0 0  1 2 2  0.67500000000000004 0 0  0.67500000000000004 0 3 
 0 2 1 2
7 0 0  1 2 2  0.32500000000000001 7.9602041944578004e-17 0  0.32500000000000001 7.9602041944578004e-17 3 
 0 2 1 2
2 0 0 -0.50000002374872599 0 0 1 1 0 -0 -0 1 0 0.67500001750886396
7 0 0  1 2 2  0.67500000000000004 0 0  0.67500000000000004 0 -0.5 
 0 2 1 2
2 0 0 0 0 0 1 1 0 -0 -0 1 0 0.67500001750886396
Polygon3D 0
PolygonOnTriangulations 0
Surfaces 7
9 0 0 0 0 1 1 2 2 2 2 0.67500000000000004 -0.671302279373585 0  0.67500000000000004 0.671302279373585 0  
-0.66024963049531904 -0.671302279373585 0  -0.66024963049531904 0.671302279373585 0  

0 2
1 2

0 2
1 2

9 0 1 1 0 2 1 6 2 4 2 0.67500000000000004 0 0  1 0.67500000000000004 0 3  1 
0.67500000000000004 1.16913429510899 0  0.5 0.67500000000000004 1.16913429510899 3  0.5 
-0.33750000000000002 0.58456714755449601 0  1 -0.33750000000000002 0.58456714755449601 3  1 
-1.3500000000000001 1.6532731788489301e-16 0  0.5 -1.3500000000000001 1.6532731788489301e-16 3  0.5 
-0.33750000000000002 -0.58456714755449601 0  1 -0.33750000000000002 -0.58456714755449601 3  1 
0.67499999999999893 -1.16913429510899 0  0.5 0.67499999999999893 -1.16913429510899 3  0.5 

0 2
0.33333333333333298 2
0.66666666666666696 2
1 2

0 2
1 2

9 0 1 1 0 2 1 6 2 4 2 0.32500000000000001 7.9602041944578004e-17 0  1 0.32500000000000001 7.9602041944578004e-17 3  1 
0.32500000000000001 0.56291651245988494 0  0.5 0.32500000000000001 0.56291651245988494 3  0.5 
-0.16250000000000001 0.28145825622994303 0  1 -0.16250000052147601 0.28144523711549702 3  1 
-0.65000000000000002 -7.9602041944577905e-17 0  0.5 -0.65000000052142193 -1.3017759610670999e-05 3  0.5 
-0.16250000000000001 -0.28145825622994303 0  1 -0.16250000052136798 -0.28147127263500099 3  1 
0.32500000000000001 -0.56291651245988494 0  0.5 0.32500000000000001 -0.56291651245988494 3  0.5 

0 2
0.33333333333333298 2
0.66666666666666696 2
1 2

0 2
1 2

9 0 0 0 0 1 1 2 2 2 2 -0.66024963049531904 -0.671302279373585 3  -0.66024963049531904 0.671302279373585 3  
0.67500000000000004 -0.671302279373585 3  0.67500000000000004 0.671302279373585 3  

0 2
1 2

0 2
1 2

9 0 0 0 0 1 1 2 2 2 2 0.67500000000000004 -0.671302279373585 -0.5  0.67500000000000004 0.671302279373585 -0.5  
-0.66024963049531904 -0.671302279373585 -0.5  -0.66024963049531904 0.671302279373585 -0.5  

0 2
1 2

0 2
1 2

9 0 1 1 0 2 1 6 2 4 2 0.67500000000000004 0 0  1 0.67500000000000004 0 -0.5  1 
0.67500000000000004 -1.16913429510899 0  0.5 0.67500000000000004 -1.16913429510899 -0.5  0.5 
-0.33750000000000002 -0.58456714755449601 0  1 -0.33750000000000002 -0.58456714755449601 -0.5  1 
-1.3500000000000001 -1.6532731788489301e-16 0  0.5 -1.3500000000000001 -1.6532731788489301e-16 -0.5  0.5 
-0.33750000000000002 0.58456714755449601 0  1 -0.33750000000000002 0.58456714755449601 -0.5  1 
0.67499999999999893 1.16913429510899 0  0.5 0.67499999999999893 1.16913429510899 -0.5  0.5 

0 2
0.33333333333333298 2
0.66666666666666696 2
1 2

0 2
1 2

9 0 0 0 0 1 1 2 2 2 2 -0.66024963049531904 -0.671302279373585 0  -0.66024963049531904 0.671302279373585 0  
0.67500000000000004 -0.671302279373585 0  0.67500000000000004 0.671302279373585 0  

0 2
1 2

0 2
1 2

Triangulations 0

TShapes 38
Ve
0.0147504638060296
0.675 0 0
0 0

0101101
*
Ed
 0.0147504638060296 1 1 0
1  1 0 0 6.28318530717959
2  1 1 0 0 6.28318530717959
2  2 2 0 0 6.28318530717959
0

0101000
+38 0 -38 0 *
Wi

0101100
-37 0 *
Ve
1e-07
0.325 0 0
0 0

0101101
*
Ed
 1e-07 1 1 0
1  2 0 0 6.28318530717959
2  3 1 0 0 6.28318530717959
2  4 3 0 0 6.28318530717959
0

0101000
+35 0 -35 0 *
Wi

0101100
+34 0 *
Fa
0  1e-07 1 0

0111000
+36 0 +33 0 *
Ve
0.0147504638060528
0.675 0 3
0 0

0101101
*
Ed
 0.0147504638060528 1 1 0
1  3 0 0 6.28318530717959
2  5 4 0 0 6.28318530717959
2  6 2 0 0 6.28318530717959
0

0101000
+31 0 -31 0 *
Wi

0101100
-30 0 *
Ve
1.11755182581697e-05
-0.325 0 3
0 0

0101101
*
Ve
1.11755182581697e-05
0.325 0 3
0 0

0101101
*
Ed
 1.11719772993794e-05 1 1 0
1  4 0 0 3.14159265358979
2  7 4 0 0 3.14159265358979
2  8 3 0 0 3.14159265358979
0

0101000
+28 0 -27 0 *
Ed
 1.11755182581697e-05 1 1 0
1  5 0 3.14159265358979 6.28318530717959
2  9 4 0 3.14159265358979 6.28318530717959
2  10 3 0 3.14159265358979 6.28318530717959
0

0101000
+27 0 -28 0 *
Wi

0101100
-26 0 -25 0 *
Fa
0  1e-07 4 0

0111000
+29 0 +24 0 *
Ed
 1e-07 1 1 0
1  6 0 0 1
3  11 12C0 2 0 0 1
0

0101000
+38 0 -31 0 *
Wi

0101100
+22 0 +30 0 -22 0 +37 0 *
Fa
0  1e-07 2 0

0111000
+21 0 *
Ed
 1e-07 1 1 0
1  7 0 0 1
3  13 14C0 3 0 0 1
0

0101000
+35 0 -27 0 *
Wi

0101100
+19 0 -26 0 -25 0 -19 0 +34 0 *
Fa
0  1e-07 3 0

0111000
+18 0 *
Sh

0101100
+32 0 -23 0 +20 0 +17 0 *
So

0100000
+16 0 *
Ve
0.0147504638060488
0.675 0 -0.5
0 0

0101101
*
Ed
 0.0147504638060488 1 1 0
1  8 0 0 6.28318530717959
2  15 5 0 0 6.28318530717959
2  16 6 0 0 6.28318530717959
0

0101000
+14 0 -14 0 *
Wi

0101100
-13 0 *
Fa
0  1e-07 5 0

0111000
+12 0 *
Ve
0.0147504638060296
0.675 0 0
0 0

0101101
*
Ed
 1e-07 1 1 0
1  9 0 0 1
3  17 18C0 6 0 0 1
0

0101000
+10 0 -14 0 *
Ed
 0.0147504638060296 1 1 0
1  10 0 0 6.28318530717959
2  19 6 0 0 6.28318530717959
2  20 7 0 0 6.28318530717959
0

0101000
+10 0 -10 0 *
Wi

0101100
+9 0 +13 0 -9 0 -8 0 *
Fa
0  1e-07 6 0

0111000
+7 0 *
Wi

0101100
+8 0 *
Fa
0  1e-07 7 0

0111000
+5 0 *
Sh

0101100
+11 0 +6 0 +4 0 *
So

0100000
+3 0 *
Co

1100000
+15 0 +2 0 *

+1 0 