DBRep_DrawableShape

CASCADE Topology V3, (c) Open Cascade
Locations 0
Curve2ds 0
Curves 36
1 4.8443529720886387 4.9042188111216412 10 -1 -1.7347234759768071e-16 0 
1 -5.1556470279113622 4.9042188111216394 10 8.6736173798840355e-17 -1 0 
1 -5.1556470279113613 -5.0957811888783606 10 1 8.6736173798840367e-17 0 
1 4.8443529720886387 -5.0957811888783597 10 0 1 0 
1 -2.3178611300164786 -0.96072309690938518 10 1 0 0 
1 -2.3178611300164791 1.0392769030906148 10 2.1684043449710089e-16 -1 0 
1 -2.3178611300164791 1.0392769030906148 10 -1 -0 -0 
1 -0.31786113001647892 1.0392769030906148 10 -0 1 -0 
1 0.13407811634328001 -0.94320913601502521 10 1 0 0 
1 0.13407811634327976 1.0567908639849748 10 1.2197274440461925e-16 -1 0 
1 0.13407811634327976 1.0567908639849748 10 -1 -0 -0 
1 2.1340781163432796 1.0567908639849748 10 -2.1684043449710089e-16 1 -0 
1 -2.3178611300164791 1.0392769030906148 0 2.1684043449710089e-16 -1 0 
1 -2.3178611300164786 -0.96072309690938518 0 1 0 0 
1 -0.31786113001647892 1.0392769030906148 0 -0 1 -0 
1 -2.3178611300164791 1.0392769030906148 0 -1 -0 -0 
1 4.8443529720886387 4.9042188111216412 0 -1 -1.7347234759768071e-16 0 
1 4.8443529720886387 -5.0957811888783597 0 0 1 0 
1 -5.1556470279113613 -5.0957811888783606 0 1 8.6736173798840367e-17 0 
1 -5.1556470279113622 4.9042188111216394 0 8.6736173798840355e-17 -1 0 
1 0.13407811634327976 1.0567908639849748 0 1.2197274440461925e-16 -1 0 
1 0.13407811634328001 -0.94320913601502521 0 1 0 0 
1 2.1340781163432796 1.0567908639849748 0 -2.1684043449710089e-16 1 -0 
1 0.13407811634327976 1.0567908639849748 0 -1 -0 -0 
1 -5.1556470279113622 4.9042188111216394 10 -0 -0 -1 
1 4.8443529720886387 4.9042188111216412 10 -0 -0 -1 
1 -5.1556470279113613 -5.0957811888783606 10 -0 -0 -1 
1 4.8443529720886387 -5.0957811888783597 10 -0 -0 -1 
1 -2.3178611300164791 1.0392769030906148 10 -0 -0 -1 
1 -2.3178611300164786 -0.96072309690938518 10 -0 -0 -1 
1 -0.31786113001647892 -0.96072309690938518 10 -0 -0 -1 
1 -0.31786113001647892 1.0392769030906148 10 -0 -0 -1 
1 0.13407811634327976 1.0567908639849748 10 -0 -0 -1 
1 0.13407811634328001 -0.94320913601502521 10 -0 -0 -1 
1 2.13407811634328 -0.94320913601502521 10 -0 -0 -1 
1 2.1340781163432796 1.0567908639849748 10 -0 -0 -1 
Polygon3D 0
PolygonOnTriangulations 0
Surfaces 14
1 0 0 10 0 0 1 1 0 -0 -0 1 0 
1 0 0 0 0 0 1 1 0 -0 -0 1 0 
1 4.8443529720886387 4.9042188111216412 10 1.7347234759768071e-16 -1 0 1 1.7347234759768071e-16 0 -0 0 1 
1 -5.1556470279113622 4.9042188111216394 10 1 8.6736173798840355e-17 -0 -8.6736173798840355e-17 1 0 0 0 1 
1 -5.1556470279113613 -5.0957811888783606 10 -8.6736173798840379e-17 1 0 -1 -8.6736173798840379e-17 0 0 0 1 
1 4.8443529720886387 -5.0957811888783597 10 -1 0 0 0 0 1 0 1 -0 
1 -2.3178611300164791 1.0392769030906148 10 1 2.1684043449710089e-16 -0 -2.1684043449710089e-16 1 0 0 0 1 
1 -2.3178611300164786 -0.96072309690938518 10 0 1 0 0 -0 1 1 0 -0 
1 -0.31786113001647892 1.0392769030906148 10 -1 0 0 0 0 1 0 1 -0 
1 -2.3178611300164791 1.0392769030906148 10 0 -1 0 0 -0 -1 1 0 0 
1 0.13407811634327976 1.0567908639849748 10 1 1.2197274440461925e-16 -0 -1.2197274440461925e-16 1 0 0 0 1 
1 0.13407811634328001 -0.94320913601502521 10 0 1 0 0 -0 1 1 0 -0 
1 2.1340781163432796 1.0567908639849748 10 -1 -2.1684043449710089e-16 0 2.1684043449710089e-16 -1 0 0 0 1 
1 0.13407811634327976 1.0567908639849748 10 0 -1 0 0 -0 -1 1 0 0 
Triangulations 0

TShapes 94
Ve
1e-07
4.84435297208864 4.90421881112164 10
0 0

0101101
*
Ve
1e-07
-5.15564702791136 4.90421881112164 10
0 0

0101101
*
Ed
 1e-07 1 1 0
1  1 0 0 10
0

0101000
+94 0 -93 0 *
Ve
1e-07
-5.15564702791136 -5.09578118887836 10
0 0

0101101
*
Ed
 1e-07 1 1 0
1  2 0 0 10
0

0101000
+93 0 -91 0 *
Ve
1e-07
4.84435297208864 -5.09578118887836 10
0 0

0101101
*
Ed
 1e-07 1 1 0
1  3 0 0 10
0

0101000
+91 0 -89 0 *
Ed
 1e-07 1 1 0
1  4 0 0 10
0

0101000
+89 0 -94 0 *
Wi

0101100
+92 0 +90 0 +88 0 +87 0 *
Ve
1e-07
-2.31786113001648 -0.960723096909385 10
0 0

0101101
*
Ve
1e-07
-0.317861130016479 -0.960723096909385 10
0 0

0101101
*
Ed
 1e-07 1 1 0
1  5 0 0 2
0

0101000
+85 0 -84 0 *
Ve
1e-07
-2.31786113001648 1.03927690309061 10
0 0

0101101
*
Ed
 1e-07 1 1 0
1  6 0 0 2
0

0101000
+82 0 -85 0 *
Ve
1e-07
-0.317861130016479 1.03927690309061 10
0 0

0101101
*
Ed
 1e-07 1 1 0
1  7 0 -2 -0
0

0101000
+80 0 -82 0 *
Ed
 1e-07 1 1 0
1  8 0 -2 0
0

0101000
+84 0 -80 0 *
Wi

0101100
-83 0 -81 0 -79 0 -78 0 *
Ve
1e-07
0.13407811634328 -0.943209136015025 10
0 0

0101101
*
Ve
1e-07
2.13407811634328 -0.943209136015025 10
0 0

0101101
*
Ed
 1e-07 1 1 0
1  9 0 0 2
0

0101000
+76 0 -75 0 *
Ve
1e-07
0.13407811634328 1.05679086398497 10
0 0

0101101
*
Ed
 1e-07 1 1 0
1  10 0 0 2
0

0101000
+73 0 -76 0 *
Ve
1e-07
2.13407811634328 1.05679086398497 10
0 0

0101101
*
Ed
 1e-07 1 1 0
1  11 0 -2 -0
0

0101000
+71 0 -73 0 *
Ed
 1e-07 1 1 0
1  12 0 -2 0
0

0101000
+75 0 -71 0 *
Wi

0101100
-74 0 -72 0 -70 0 -69 0 *
Fa
0  1e-07 1 0

0111000
+86 0 +77 0 +68 0 *
Ve
1e-07
-2.31786113001648 1.03927690309061 0
0 0

0101101
*
Ve
1e-07
-2.31786113001648 -0.960723096909385 0
0 0

0101101
*
Ed
 1e-07 1 1 0
1  13 0 0 2
0

0101000
+66 0 -65 0 *
Ve
1e-07
-0.317861130016479 -0.960723096909385 0
0 0

0101101
*
Ed
 1e-07 1 1 0
1  14 0 0 2
0

0101000
+65 0 -63 0 *
Ve
1e-07
-0.317861130016479 1.03927690309061 0
0 0

0101101
*
Ed
 1e-07 1 1 0
1  15 0 -2 0
0

0101000
+63 0 -61 0 *
Ed
 1e-07 1 1 0
1  16 0 -2 -0
0

0101000
+61 0 -66 0 *
Wi

0101100
+64 0 +62 0 +60 0 +59 0 *
Ve
1e-07
4.84435297208864 4.90421881112164 0
0 0

0101101
*
Ve
1e-07
-5.15564702791136 4.90421881112164 0
0 0

0101101
*
Ed
 1e-07 1 1 0
1  17 0 0 10
0

0101000
+57 0 -56 0 *
Ve
1e-07
4.84435297208864 -5.09578118887836 0
0 0

0101101
*
Ed
 1e-07 1 1 0
1  18 0 0 10
0

0101000
+54 0 -57 0 *
Ve
1e-07
-5.15564702791136 -5.09578118887836 0
0 0

0101101
*
Ed
 1e-07 1 1 0
1  19 0 0 10
0

0101000
+52 0 -54 0 *
Ed
 1e-07 1 1 0
1  20 0 0 10
0

0101000
+56 0 -52 0 *
Wi

0101100
-55 0 -53 0 -51 0 -50 0 *
Ve
1e-07
0.13407811634328 1.05679086398497 0
0 0

0101101
*
Ve
1e-07
0.13407811634328 -0.943209136015025 0
0 0

0101101
*
Ed
 1e-07 1 1 0
1  21 0 0 2
0

0101000
+48 0 -47 0 *
Ve
1e-07
2.13407811634328 -0.943209136015025 0
0 0

0101101
*
Ed
 1e-07 1 1 0
1  22 0 0 2
0

0101000
+47 0 -45 0 *
Ve
1e-07
2.13407811634328 1.05679086398497 0
0 0

0101101
*
Ed
 1e-07 1 1 0
1  23 0 -2 0
0

0101000
+45 0 -43 0 *
Ed
 1e-07 1 1 0
1  24 0 -2 -0
0

0101000
+43 0 -48 0 *
Wi

0101100
+46 0 +44 0 +42 0 +41 0 *
Fa
0  1e-07 2 0

0111000
-58 0 -49 0 -40 0 *
Ed
 1e-07 1 1 0
1  25 0 -0 10
0

0101000
+93 0 -56 0 *
Ed
 1e-07 1 1 0
1  26 0 -0 10
0

0101000
+94 0 -57 0 *
Wi

0101100
+55 0 -38 0 -92 0 +37 0 *
Fa
0  1e-07 3 0

0111000
-36 0 *
Ed
 1e-07 1 1 0
1  27 0 -0 10
0

0101000
+91 0 -52 0 *
Wi

0101100
+50 0 -34 0 -90 0 +38 0 *
Fa
0  1e-07 4 0

0111000
-33 0 *
Ed
 1e-07 1 1 0
1  28 0 -0 10
0

0101000
+89 0 -54 0 *
Wi

0101100
+51 0 -31 0 -88 0 +34 0 *
Fa
0  1e-07 5 0

0111000
-30 0 *
Wi

0101100
+53 0 -37 0 -87 0 +31 0 *
Fa
0  1e-07 6 0

0111000
-28 0 *
Ed
 1e-07 1 1 0
1  29 0 -0 10
0

0101000
+82 0 -66 0 *
Ed
 1e-07 1 1 0
1  30 0 -0 10
0

0101000
+85 0 -65 0 *
Wi

0101100
-64 0 -26 0 +81 0 +25 0 *
Fa
0  1e-07 7 0

0111000
+24 0 *
Ed
 1e-07 1 1 0
1  31 0 -0 10
0

0101000
+84 0 -63 0 *
Wi

0101100
-62 0 -25 0 +83 0 +22 0 *
Fa
0  1e-07 8 0

0111000
+21 0 *
Ed
 1e-07 1 1 0
1  32 0 -0 10
0

0101000
+80 0 -61 0 *
Wi

0101100
-60 0 -22 0 +78 0 +19 0 *
Fa
0  1e-07 9 0

0111000
+18 0 *
Wi

0101100
-59 0 -19 0 +79 0 +26 0 *
Fa
0  1e-07 10 0

0111000
+16 0 *
Ed
 1e-07 1 1 0
1  33 0 -0 10
0

0101000
+73 0 -48 0 *
Ed
 1e-07 1 1 0
1  34 0 -0 10
0

0101000
+76 0 -47 0 *
Wi

0101100
-46 0 -14 0 +72 0 +13 0 *
Fa
0  1e-07 11 0

0111000
+12 0 *
Ed
 1e-07 1 1 0
1  35 0 -0 10
0

0101000
+75 0 -45 0 *
Wi

0101100
-44 0 -13 0 +74 0 +10 0 *
Fa
0  1e-07 12 0

0111000
+9 0 *
Ed
 1e-07 1 1 0
1  36 0 -0 10
0

0101000
+71 0 -43 0 *
Wi

0101100
-42 0 -10 0 +69 0 +7 0 *
Fa
0  1e-07 13 0

0111000
+6 0 *
Wi

0101100
-41 0 -7 0 +70 0 +14 0 *
Fa
0  1e-07 14 0

0111000
+4 0 *
Sh

0101100
+67 0 -39 0 -35 0 -32 0 -29 0 -27 0 +23 0 +20 0 +17 0 +15 0 
+11 0 +8 0 +5 0 +3 0 *
So

0100000
+2 0 *

+1 0 