DBRep_DrawableShape

CASCADE Topology V3, (c) Open Cascade
Locations 0
Curve2ds 8
1 1 1.2319247184866544e-17 -3.3306690738754696e-16 1 
1 -6.3394708464917427e-09 1.2319247184866544e-17 1.8807483247605594e-16 1 
1 1.6653345369377348e-16 1 1 0 
1 0.5 1.2319247184866544e-17 0 1 
1 0.5 1.2319247184866544e-17 0 1 
1 1.6653345369377348e-16 1.2319247184866544e-17 1 0 
7 0 0  1 2 2  -6.3394706423714964e-09 1  0.49999999999999983 1 
 0 2 0.49999999999999967 2
7 0 0  1 2 2  -6.3394708234458522e-09 1.2319247184866544e-17  0.49999999999999983 1.2319247184866544e-17 
 0 2 0.49999999999999967 2
Curves 18
1 9.9999999999999964 6.7762635780344027e-18 -1 -0 -0 1 
7 0 0  3 82 80  0.029699702239122668 0.10119028899492273 0  0.024547042426449183 0.092069126655581576 0  0.014065804705080755 0.071050999133951312 0  0.0029051496373916686 0.037141743757885037 0  -0.0013414468943726467 0.00053789237422121423 0  0.0025634828946500925 -0.034653754325212428 0  0.014843087657611003 -0.067851028691478188 0  0.035276200896883637 -0.098630141526500056 0  0.063561892943093543 -0.12698267254027559 0  0.099520824781130293 -0.15303738957542318 0  0.14307763936897913 -0.17691756383136625 0  0.19419003451510145 -0.19870460791903516 0  0.25280989502528173 -0.2184506009011549 0  0.31887125699733321 -0.23619484457248049 0  0.39228897773904514 -0.25197478340403795 0  0.47296033796199721 -0.26583208133034603 0  0.56076693013743129 -0.27781596617392196 0  0.65557619296834968 -0.28798519757058222 0  0.75724256764971443 -0.29640933800916724 0  0.86560835976432526 -0.30316968325567972 0  0.98050440917361326 -0.30835997300971774 0  1.1017506382957896 -0.31208695866883801 0  1.2291565241213307 -0.31447081855626441 0  1.3625215292364949 -0.31564543769764269 0  1.5016355065147367 -0.31575853526428599 0  1.646279094111764 -0.31497160854551637 0  1.7962241058754032 -0.31345969674090762 0  1.9512339232522249 -0.31141101664326915 0  2.1110638903449517 -0.30902605233713204 0  2.2754617176116323 -0.30651781031037606 0  2.444167883262391 -0.30410649121835354 0  2.6169160739193029 -0.30203476660823037 0  2.793433505891044 -0.30050234118341923 0  2.9734416554102321 -0.29991062248547506 0  3.1566535933836994 -0.29991471000868269 0  3.3427799776111202 -0.29888648658088418 0  3.5315267047123107 -0.29723202750546085 0  3.7225953097054361 -0.29483958631373552 0  3.9156836581846157 -0.29174694495111447 0  4.1104864217054882 -0.2879584761670394 0  4.3066955658513351 -0.28349479978073017 0  4.5040008347306477 -0.27837887700326464 0  4.7020902438861185 -0.27263937554628653 0  4.9006505711120605 -0.26630924634794023 0  5.0993678537551075 -0.25942558657824966 0  5.2979278836631041 -0.25202908726429013 0  5.4960167044221491 -0.24416357120464421 0  5.6933211067463523 -0.23587548309306675 0  5.8895291245316148 -0.22721336879924039 0  6.0843305260817866 -0.21822735521958017 0  6.2774173059866305 -0.20896863858070022 0  6.4684841692313606 -0.19948896100629882 0  6.6572290167475243 -0.18984013554600676 0  6.8433534190353216 -0.18007355103117892 0  7.0265630910751602 -0.17023975013543952 0  7.2065683547569463 -0.16038799439584342 0  7.3830845983930793 -0.15056590078761467 0  7.5558327245816637 -0.14081909554258265 0  7.7245395932237573 -0.13119092744009464 0  7.8889384519083405 -0.12172220484826134 0  8.0487693591229945 -0.11245100825178364 0  8.203779593701146 -0.10341252167532075 0  8.3537240552410363 -0.094638935709722191 0  8.4983656516306212 -0.086159380289343585 0  8.6374756744305952 -0.077999912126678131 0  8.7708341591770544 -0.070183546828296334 0  8.8982302388337366 -0.062730327030597305 0  9.0194624581308105 -0.055657435146222692 0  9.1343391605437798 -0.048979331455935998 0  9.2426785529104833 -0.042707921095513912 0  9.3443098137234735 -0.036852810125266262 0  9.4390705783600239 -0.031421299787804384 0  9.5268165452888383 -0.026419401595220719 0  9.6073906644731153 -0.021849472615790736 0  9.6807251576057158 -0.017719028333452218 0  9.7465128302347015 -0.014013339444174211 0  9.8052510145537983 -0.010783408022775033 0  9.8550017390021658 -0.007873898591041345 0  9.9110140899118662 -0.0052910977512137585 0  9.9417935340012029 -0.0013104610785893693 0  10.004081079776764 -0.0019863739231095008 0  9.9999999999999964 6.7762635780344027e-18 0 
 0.49999999999999967 4 0.50153514125261323 1 0.50343723370749638 1 0.50520671063253153 1 0.50689940627786156 1 0.50858289748514807 1 0.51034896684240649 1 0.51227688010412842 1 0.5144269403362528 1 0.51684144794695985 1 0.51954871894966159 1 0.52256707907121569 1 0.52590787229729474 1 0.52957751303120226 1 0.53357884217245521 1 0.53791202060011423 1 0.54257512665240282 1 0.54756456220189942 1 0.55287533648194498 1 0.55850126972462955 1 0.56443514361257074 1 0.57066881777608136 1 0.57719332278231938 1 0.58399893868745412 1 0.59107526435370639 1 0.5984112814370609 1 0.60599541571548421 1 0.6138155977274995 1 0.62185932375163866 1 0.63011371799590876 1 0.63856559610420216 1 0.64720152982510726 1 0.65600791297332783 1 0.66497101411379533 1 0.67407682030107308 1 0.68331106451963397 1 0.69265927060116006 1 0.7021067746367381 1 0.71163874610272515 1 0.721240208761455 1 0.73089606313766109 1 0.7405911088727527 1 0.75031006789244015 1 0.76003760814635557 1 0.76975836805438613 1 0.7794569808247831 1 0.78911809969936131 1 0.79872642330982213 1 0.80826672117844556 1 0.81772385911749779 1 0.82708282537130784 1 0.83632875568423393 1 0.8454469590594943 1 0.8544229426562806 1 0.86324243673511369 1 0.87189141879538867 1 0.88035613749924468 1 0.88862313568294882 1 0.89667927314251006 1 0.90451174829255376 1 0.91210811923524049 1 0.91945632408405964 1 0.92654470039010839 1 0.93336200379950607 1 0.93989742576635749 1 0.94614061044710496 1 0.95208167073740479 1 0.95771120349660499 1 0.96302030355180013 1 0.96800057754205049 1 0.97264415606162846 1 0.97694370548695397 1 0.98089243899569944 1 0.98448412611455338 1 0.98771310235941678 1 0.99057427697503209 1 0.99306314071076396 1 0.99517577229769183 1 0.99825962652274169 1 1 4
1 0.029699702239120995 0.10119028899491973 -1 -0 -0 1 
7 0 0  3 82 80  0.029699702239122668 0.10119028899492273 -1  0.024547042426449183 0.092069126655581576 -1  0.014065804705080755 0.071050999133951312 -1  0.0029051496373916686 0.037141743757885037 -1  -0.0013414468943726467 0.00053789237422121423 -1  0.0025634828946500925 -0.034653754325212428 -1  0.014843087657611003 -0.067851028691478188 -1  0.035276200896883637 -0.098630141526500056 -1  0.063561892943093543 -0.12698267254027559 -1  0.099520824781130293 -0.15303738957542318 -1  0.14307763936897913 -0.17691756383136625 -1  0.19419003451510145 -0.19870460791903516 -1  0.25280989502528173 -0.2184506009011549 -1  0.31887125699733321 -0.23619484457248049 -1  0.39228897773904514 -0.25197478340403795 -1  0.47296033796199721 -0.26583208133034603 -1  0.56076693013743129 -0.27781596617392196 -1  0.65557619296834968 -0.28798519757058222 -1  0.75724256764971443 -0.29640933800916724 -1  0.86560835976432526 -0.30316968325567972 -1  0.98050440917361326 -0.30835997300971774 -1  1.1017506382957896 -0.31208695866883801 -1  1.2291565241213307 -0.31447081855626441 -1  1.3625215292364949 -0.31564543769764269 -1  1.5016355065147367 -0.31575853526428599 -1  1.646279094111764 -0.31497160854551637 -1  1.7962241058754032 -0.31345969674090762 -1  1.9512339232522249 -0.31141101664326915 -1  2.1110638903449517 -0.30902605233713204 -1  2.2754617176116323 -0.30651781031037606 -1  2.444167883262391 -0.30410649121835354 -1  2.6169160739193029 -0.30203476660823037 -1  2.793433505891044 -0.30050234118341923 -1  2.9734416554102321 -0.29991062248547506 -1  3.1566535933836994 -0.29991471000868269 -1  3.3427799776111202 -0.29888648658088418 -1  3.5315267047123107 -0.29723202750546085 -1  3.7225953097054361 -0.29483958631373552 -1  3.9156836581846157 -0.29174694495111447 -1  4.1104864217054882 -0.2879584761670394 -1  4.3066955658513351 -0.28349479978073017 -1  4.5040008347306477 -0.27837887700326464 -1  4.7020902438861185 -0.27263937554628653 -1  4.9006505711120605 -0.26630924634794023 -1  5.0993678537551075 -0.25942558657824966 -1  5.2979278836631041 -0.25202908726429013 -1  5.4960167044221491 -0.24416357120464421 -1  5.6933211067463523 -0.23587548309306675 -1  5.8895291245316148 -0.22721336879924039 -1  6.0843305260817866 -0.21822735521958017 -1  6.2774173059866305 -0.20896863858070022 -1  6.4684841692313606 -0.19948896100629882 -1  6.6572290167475243 -0.18984013554600676 -1  6.8433534190353216 -0.18007355103117892 -1  7.0265630910751602 -0.17023975013543952 -1  7.2065683547569463 -0.16038799439584342 -1  7.3830845983930793 -0.15056590078761467 -1  7.5558327245816637 -0.14081909554258265 -1  7.7245395932237573 -0.13119092744009464 -1  7.8889384519083405 -0.12172220484826134 -1  8.0487693591229945 -0.11245100825178364 -1  8.203779593701146 -0.10341252167532075 -1  8.3537240552410363 -0.094638935709722191 -1  8.4983656516306212 -0.086159380289343585 -1  8.6374756744305952 -0.077999912126678131 -1  8.7708341591770544 -0.070183546828296334 -1  8.8982302388337366 -0.062730327030597305 -1  9.0194624581308105 -0.055657435146222692 -1  9.1343391605437798 -0.048979331455935998 -1  9.2426785529104833 -0.042707921095513912 -1  9.3443098137234735 -0.036852810125266262 -1  9.4390705783600239 -0.031421299787804384 -1  9.5268165452888383 -0.026419401595220719 -1  9.6073906644731153 -0.021849472615790736 -1  9.6807251576057158 -0.017719028333452218 -1  9.7465128302347015 -0.014013339444174211 -1  9.8052510145537983 -0.010783408022775033 -1  9.8550017390021658 -0.007873898591041345 -1  9.9110140899118662 -0.0052910977512137585 -1  9.9417935340012029 -0.0013104610785893693 -1  10.004081079776764 -0.0019863739231095008 -1  9.9999999999999964 6.7762635780344027e-18 -1 
 0.49999999999999967 4 0.50153514125261323 1 0.50343723370749638 1 0.50520671063253153 1 0.50689940627786156 1 0.50858289748514807 1 0.51034896684240649 1 0.51227688010412842 1 0.5144269403362528 1 0.51684144794695985 1 0.51954871894966159 1 0.52256707907121569 1 0.52590787229729474 1 0.52957751303120226 1 0.53357884217245521 1 0.53791202060011423 1 0.54257512665240282 1 0.54756456220189942 1 0.55287533648194498 1 0.55850126972462955 1 0.56443514361257074 1 0.57066881777608136 1 0.57719332278231938 1 0.58399893868745412 1 0.59107526435370639 1 0.5984112814370609 1 0.60599541571548421 1 0.6138155977274995 1 0.62185932375163866 1 0.63011371799590876 1 0.63856559610420216 1 0.64720152982510726 1 0.65600791297332783 1 0.66497101411379533 1 0.67407682030107308 1 0.68331106451963397 1 0.69265927060116006 1 0.7021067746367381 1 0.71163874610272515 1 0.721240208761455 1 0.73089606313766109 1 0.7405911088727527 1 0.75031006789244015 1 0.76003760814635557 1 0.76975836805438613 1 0.7794569808247831 1 0.78911809969936131 1 0.79872642330982213 1 0.80826672117844556 1 0.81772385911749779 1 0.82708282537130784 1 0.83632875568423393 1 0.8454469590594943 1 0.8544229426562806 1 0.86324243673511369 1 0.87189141879538867 1 0.88035613749924468 1 0.88862313568294882 1 0.89667927314251006 1 0.90451174829255376 1 0.91210811923524049 1 0.91945632408405964 1 0.92654470039010839 1 0.93336200379950607 1 0.93989742576635749 1 0.94614061044710496 1 0.95208167073740479 1 0.95771120349660499 1 0.96302030355180013 1 0.96800057754205049 1 0.97264415606162846 1 0.97694370548695397 1 0.98089243899569944 1 0.98448412611455338 1 0.98771310235941678 1 0.99057427697503209 1 0.99306314071076396 1 0.99517577229769183 1 0.99825962652274169 1 1 4
1 43.199200900428039 -39.837986036391143 0 0 1 0 
1 43.199200900428039 -39.837986036391143 -60 0 0 1 
1 43.199200900428039 -39.837986036391143 -60 0 1 0 
1 43.199200900428039 40.162013963608871 -60 0 0 1 
1 -36.800799099571947 -39.837986036391143 0 1 0 0 
1 -36.800799099571947 -39.837986036391143 -60 0 0 1 
1 -36.800799099571947 -39.837986036391143 -60 1 0 0 
1 -36.800799099571954 40.162013963608864 0 8.6736173798840342e-17 -1 0 
1 -36.800799099571954 40.162013963608864 -60 0 0 1 
1 -36.800799099571954 40.162013963608864 -60 8.6736173798840342e-17 -1 0 
1 43.199200900428039 40.162013963608871 0 -1 -8.6736173798840367e-17 0 
1 43.199200900428039 40.162013963608871 -60 -1 -8.6736173798840367e-17 0 
7 0 0  3 77 75  9.9999999999999964 6.7762635780344027e-18 0  9.9981420168300623 0.00090433157894598769 0  9.968746114975799 0.0063615011043691525 0  9.9421542508908267 0.013236212242124576 0  9.8810619660508436 0.026645410858077499 0  9.8195800565178342 0.040529236865261067 0  9.7465577209578971 0.056692565587328027 0  9.6807245754093678 0.071221919501529937 0  9.607407553104002 0.087287525018069426 0  9.5268314758321289 0.10482045939232131 0  9.4390898042057749 0.12375783236130264 0  9.3443316769646625 0.14402714187062715 0  9.2427037658022524 0.16555130912886737 0  9.1343676941099261 0.18824735561206737 0  9.0194944666915635 0.21202705335454919 0  8.8982657845138355 0.23679704662375722 0  8.7708732874709092 0.26245914532290943 0  8.6375183884310722 0.28891063368385939 0  8.4984119172263668 0.31604462971768416 0  8.3537737957164229 0.34375046311009555 0  8.2038326895362275 0.37191411865130247 0  8.0488256462417365 0.40041870246853295 0  7.8889977209510054 0.42914495630054023 0  7.7246015905236431 0.45797181873446813 0  7.5558971517935447 0.48677700209620139 0  7.3831511146640647 0.51543763352619043 0  7.2066365796358838 0.5438309099465175 0  7.02663260650578 0.57183478041301539 0  6.843423774863977 0.59932867189657124 0  6.6572997338459237 0.62619420651565061 0  6.4685547467103097 0.65231596429781835 0  6.2774872258797059 0.67758222677146074 0  6.0843992617817699 0.70188574648450031 0  5.889596146635772 0.72512448660938356 0  5.6933858918868898 0.74720237341806706 0  5.4960787425913518 0.76803001093546808 0  5.2979866866703684 0.78752538147749906 0  5.0994229632349546 0.8056145021430291 0  4.9007015663025744 0.82223204641165015 0  4.7021367487028485 0.83732190411000784 0  4.5040425254753576 0.85083772740894337 0  4.3067321764198345 0.8627432891071507 0  4.1105177491761919 0.87301314874567681 0  3.9157095675777001 0.88163193503061965 0  3.7226157341779582 0.88859834199957144 0  3.5315416566765983 0.8939113413615104 0  3.3427895160625352 0.89762141093948689 0  3.1566579711134843 0.89964303457239414 0  2.9734375567045115 0.90043919006433271 0  2.7933995024463032 0.89840526205641957 0  2.6168487099277695 0.89291636492585613 0  2.4440638214730623 0.8841549339678082 0  2.275318891263113 0.87212569241428706 0  2.1108809676673554 0.85691173040976076 0  1.9510104087757678 0.83860706924419426 0  1.7959602501947409 0.81733284725608391 0  1.6459758274856175 0.79323149511999902 0  1.5012943478410614 0.76646622983835544 0  1.362144488554129 0.73721885614322469 0  1.2287460037083509 0.70568769839186241 0  1.1013093407104502 0.67208523635218353 0  0.9800352672254794 0.6366355740913372 0  0.86511450213213825 0.59957176437736814 0  0.7567273477110309 0.56113300282940182 0  0.65504331458949983 0.52156174390334165 0  0.56022072490451524 0.48110075136159636 0  0.47240628883851332 0.43999009346295687 0  0.39173461012228988 0.39846412644318946 0  0.31832762868278536 0.35674836658015424 0  0.25229393645165588 0.31505626381237023 0  0.19372802104814801 0.27358558436204977 0  0.14270953718661039 0.23251415118475147 0  0.099303154431286289 0.19199416157939012 0  0.063560568825835148 0.15214462053697858 0  0.041640629045953233 0.12156729139509639 0  0.031585623283257876 0.10452871858820334 0  0.029699702239122668 0.10119028899492273 0 
 0 4 0.00079233555995385241 1 0.0031640257220785246 1 0.0049375673764310273 1 0.0096451671375533381 1 0.012571326271153161 1 0.015872724531302992 1 0.019543823502621956 1 0.023578466107251884 1 0.027969887225669805 1 0.032710726553041192 1 0.037793041903664108 1 0.04320832430822609 1 0.048947514393220086 1 0.055001019599142435 1 0.061358733334945827 1 0.068010054811026413 1 0.074943910415718393 1 0.0821487761219441 1 0.089612701069401057 1 0.097323332061477225 1 0.10526793910658926 1 0.113433441722523 1 0.12180643596145846 1 0.13037322204327306 1 0.13911983220736573 1 0.14803205921999785 1 0.15709548463346823 1 0.16629550721615072 1 0.17561737094228697 1 0.18504619284734192 1 0.19456698999525421 1 0.20416470622057167 1 0.21382423721939536 1 0.22353045557294407 1 0.2332682339622327 1 0.24302246736956729 1 0.25277809406336937 1 0.26252011545786352 1 0.27223361410799896 1 0.28190377091115609 1 0.29151588090865355 1 0.3010553678521386 1 0.3105077974751887 1 0.31985889058820821 1 0.32909453440250319 1 0.33820079414173615 1 0.34716392079499409 1 0.35597088381779501 1 0.36461069771430754 1 0.37307293892957405 1 0.38134756601362263 1 0.38942488056079078 1 0.39729548760542904 1 0.4049502582972937 1 0.41238029697136575 1 0.41957691488846849 1 0.42653161306291165 1 0.43323607631822614 1 0.43968218093051981 1 0.44586201824093918 1 0.45176793670782234 1 0.45739260510555646 1 0.46272910161254943 1 0.46777103260535113 1 0.47251269036930266 1 0.47694926067886984 1 0.48107709831014139 1 0.48489409993680349 1 0.48840021841242948 1 0.49159819113140507 1 0.49449459306506749 1 0.49710137844118168 1 0.49943812413408289 1 0.49999999999999967 4
7 0 0  3 77 75  9.9999999999999964 6.7762635780344027e-18 -1  9.9981420168300623 0.00090433157894598769 -1  9.968746114975799 0.0063615011043691525 -1  9.9421542508908267 0.013236212242124576 -1  9.8810619660508436 0.026645410858077499 -1  9.8195800565178342 0.040529236865261067 -1  9.7465577209578971 0.056692565587328027 -1  9.6807245754093678 0.071221919501529937 -1  9.607407553104002 0.087287525018069426 -1  9.5268314758321289 0.10482045939232131 -1  9.4390898042057749 0.12375783236130264 -1  9.3443316769646625 0.14402714187062715 -1  9.2427037658022524 0.16555130912886737 -1  9.1343676941099261 0.18824735561206737 -1  9.0194944666915635 0.21202705335454919 -1  8.8982657845138355 0.23679704662375722 -1  8.7708732874709092 0.26245914532290943 -1  8.6375183884310722 0.28891063368385939 -1  8.4984119172263668 0.31604462971768416 -1  8.3537737957164229 0.34375046311009555 -1  8.2038326895362275 0.37191411865130247 -1  8.0488256462417365 0.40041870246853295 -1  7.8889977209510054 0.42914495630054023 -1  7.7246015905236431 0.45797181873446813 -1  7.5558971517935447 0.48677700209620139 -1  7.3831511146640647 0.51543763352619043 -1  7.2066365796358838 0.5438309099465175 -1  7.02663260650578 0.57183478041301539 -1  6.843423774863977 0.59932867189657124 -1  6.6572997338459237 0.62619420651565061 -1  6.4685547467103097 0.65231596429781835 -1  6.2774872258797059 0.67758222677146074 -1  6.0843992617817699 0.70188574648450031 -1  5.889596146635772 0.72512448660938356 -1  5.6933858918868898 0.74720237341806706 -1  5.4960787425913518 0.76803001093546808 -1  5.2979866866703684 0.78752538147749906 -1  5.0994229632349546 0.8056145021430291 -1  4.9007015663025744 0.82223204641165015 -1  4.7021367487028485 0.83732190411000784 -1  4.5040425254753576 0.85083772740894337 -1  4.3067321764198345 0.8627432891071507 -1  4.1105177491761919 0.87301314874567681 -1  3.9157095675777001 0.88163193503061965 -1  3.7226157341779582 0.88859834199957144 -1  3.5315416566765983 0.8939113413615104 -1  3.3427895160625352 0.89762141093948689 -1  3.1566579711134843 0.89964303457239414 -1  2.9734375567045115 0.90043919006433271 -1  2.7933995024463032 0.89840526205641957 -1  2.6168487099277695 0.89291636492585613 -1  2.4440638214730623 0.8841549339678082 -1  2.275318891263113 0.87212569241428706 -1  2.1108809676673554 0.85691173040976076 -1  1.9510104087757678 0.83860706924419426 -1  1.7959602501947409 0.81733284725608391 -1  1.6459758274856175 0.79323149511999902 -1  1.5012943478410614 0.76646622983835544 -1  1.362144488554129 0.73721885614322469 -1  1.2287460037083509 0.70568769839186241 -1  1.1013093407104502 0.67208523635218353 -1  0.9800352672254794 0.6366355740913372 -1  0.86511450213213825 0.59957176437736814 -1  0.7567273477110309 0.56113300282940182 -1  0.65504331458949983 0.52156174390334165 -1  0.56022072490451524 0.48110075136159636 -1  0.47240628883851332 0.43999009346295687 -1  0.39173461012228988 0.39846412644318946 -1  0.31832762868278536 0.35674836658015424 -1  0.25229393645165588 0.31505626381237023 -1  0.19372802104814801 0.27358558436204977 -1  0.14270953718661039 0.23251415118475147 -1  0.099303154431286289 0.19199416157939012 -1  0.063560568825835148 0.15214462053697858 -1  0.041640629045953233 0.12156729139509639 -1  0.031585623283257876 0.10452871858820334 -1  0.029699702239122668 0.10119028899492273 -1 
 0 4 0.00079233555995385241 1 0.0031640257220785246 1 0.0049375673764310273 1 0.0096451671375533381 1 0.012571326271153161 1 0.015872724531302992 1 0.019543823502621956 1 0.023578466107251884 1 0.027969887225669805 1 0.032710726553041192 1 0.037793041903664108 1 0.04320832430822609 1 0.048947514393220086 1 0.055001019599142435 1 0.061358733334945827 1 0.068010054811026413 1 0.074943910415718393 1 0.0821487761219441 1 0.089612701069401057 1 0.097323332061477225 1 0.10526793910658926 1 0.113433441722523 1 0.12180643596145846 1 0.13037322204327306 1 0.13911983220736573 1 0.14803205921999785 1 0.15709548463346823 1 0.16629550721615072 1 0.17561737094228697 1 0.18504619284734192 1 0.19456698999525421 1 0.20416470622057167 1 0.21382423721939536 1 0.22353045557294407 1 0.2332682339622327 1 0.24302246736956729 1 0.25277809406336937 1 0.26252011545786352 1 0.27223361410799896 1 0.28190377091115609 1 0.29151588090865355 1 0.3010553678521386 1 0.3105077974751887 1 0.31985889058820821 1 0.32909453440250319 1 0.33820079414173615 1 0.34716392079499409 1 0.35597088381779501 1 0.36461069771430754 1 0.37307293892957405 1 0.38134756601362263 1 0.38942488056079078 1 0.39729548760542904 1 0.4049502582972937 1 0.41238029697136575 1 0.41957691488846849 1 0.42653161306291165 1 0.43323607631822614 1 0.43968218093051981 1 0.44586201824093918 1 0.45176793670782234 1 0.45739260510555646 1 0.46272910161254943 1 0.46777103260535113 1 0.47251269036930266 1 0.47694926067886984 1 0.48107709831014139 1 0.48489409993680349 1 0.48840021841242948 1 0.49159819113140507 1 0.49449459306506749 1 0.49710137844118168 1 0.49943812413408289 1 0.49999999999999967 4
Polygon3D 0
PolygonOnTriangulations 0
Surfaces 9
9 0 0 0 0 3 1 82 2 80 2 0.029699702239124347 0.1011902889949257 -1  0.029699702239124347 0.1011902889949257 0  
0.024547042426449183 0.092069126655581576 -1  0.024547042426449183 0.092069126655581576 0  
0.014065804705080755 0.071050999133951312 -1  0.014065804705080755 0.071050999133951312 0  
0.0029051496373916686 0.037141743757885037 -1  0.0029051496373916686 0.037141743757885037 0  
-0.0013414468943726467 0.00053789237422121423 -1  -0.0013414468943726467 0.00053789237422121423 0  
0.0025634828946500925 -0.034653754325212428 -1  0.0025634828946500925 -0.034653754325212428 0  
0.014843087657611003 -0.067851028691478188 -1  0.014843087657611003 -0.067851028691478188 0  
0.035276200896883637 -0.098630141526500056 -1  0.035276200896883637 -0.098630141526500056 0  
0.063561892943093543 -0.12698267254027559 -1  0.063561892943093543 -0.12698267254027559 0  
0.099520824781130293 -0.15303738957542318 -1  0.099520824781130293 -0.15303738957542318 0  
0.14307763936897913 -0.17691756383136625 -1  0.14307763936897913 -0.17691756383136625 0  
0.19419003451510145 -0.19870460791903516 -1  0.19419003451510145 -0.19870460791903516 0  
0.25280989502528173 -0.2184506009011549 -1  0.25280989502528173 -0.2184506009011549 0  
0.31887125699733321 -0.23619484457248049 -1  0.31887125699733321 -0.23619484457248049 0  
0.39228897773904514 -0.25197478340403795 -1  0.39228897773904514 -0.25197478340403795 0  
0.47296033796199721 -0.26583208133034603 -1  0.47296033796199721 -0.26583208133034603 0  
0.56076693013743129 -0.27781596617392196 -1  0.56076693013743129 -0.27781596617392196 0  
0.65557619296834968 -0.28798519757058222 -1  0.65557619296834968 -0.28798519757058222 0  
0.75724256764971443 -0.29640933800916724 -1  0.75724256764971443 -0.29640933800916724 0  
0.86560835976432526 -0.30316968325567972 -1  0.86560835976432526 -0.30316968325567972 0  
0.98050440917361326 -0.30835997300971774 -1  0.98050440917361326 -0.30835997300971774 0  
1.1017506382957896 -0.31208695866883801 -1  1.1017506382957896 -0.31208695866883801 0  
1.2291565241213307 -0.31447081855626441 -1  1.2291565241213307 -0.31447081855626441 0  
1.3625215292364949 -0.31564543769764269 -1  1.3625215292364949 -0.31564543769764269 0  
1.5016355065147367 -0.31575853526428599 -1  1.5016355065147367 -0.31575853526428599 0  
1.646279094111764 -0.31497160854551637 -1  1.646279094111764 -0.31497160854551637 0  
1.7962241058754032 -0.31345969674090762 -1  1.7962241058754032 -0.31345969674090762 0  
1.9512339232522249 -0.31141101664326915 -1  1.9512339232522249 -0.31141101664326915 0  
2.1110638903449517 -0.30902605233713204 -1  2.1110638903449517 -0.30902605233713204 0  
2.2754617176116323 -0.30651781031037606 -1  2.2754617176116323 -0.30651781031037606 0  
2.444167883262391 -0.30410649121835354 -1  2.444167883262391 -0.30410649121835354 0  
2.6169160739193029 -0.30203476660823037 -1  2.6169160739193029 -0.30203476660823037 0  
2.793433505891044 -0.30050234118341923 -1  2.793433505891044 -0.30050234118341923 0  
2.9734416554102321 -0.29991062248547506 -1  2.9734416554102321 -0.29991062248547506 0  
3.1566535933836994 -0.29991471000868269 -1  3.1566535933836994 -0.29991471000868269 0  
3.3427799776111202 -0.29888648658088418 -1  3.3427799776111202 -0.29888648658088418 0  
3.5315267047123107 -0.29723202750546085 -1  3.5315267047123107 -0.29723202750546085 0  
3.7225953097054361 -0.29483958631373552 -1  3.7225953097054361 -0.29483958631373552 0  
3.9156836581846157 -0.29174694495111447 -1  3.9156836581846157 -0.29174694495111447 0  
4.1104864217054882 -0.2879584761670394 -1  4.1104864217054882 -0.2879584761670394 0  
4.3066955658513351 -0.28349479978073017 -1  4.3066955658513351 -0.28349479978073017 0  
4.5040008347306477 -0.27837887700326464 -1  4.5040008347306477 -0.27837887700326464 0  
4.7020902438861185 -0.27263937554628653 -1  4.7020902438861185 -0.27263937554628653 0  
4.9006505711120605 -0.26630924634794023 -1  4.9006505711120605 -0.26630924634794023 0  
5.0993678537551075 -0.25942558657824966 -1  5.0993678537551075 -0.25942558657824966 0  
5.2979278836631041 -0.25202908726429013 -1  5.2979278836631041 -0.25202908726429013 0  
5.4960167044221491 -0.24416357120464421 -1  5.4960167044221491 -0.24416357120464421 0  
5.6933211067463523 -0.23587548309306675 -1  5.6933211067463523 -0.23587548309306675 0  
5.8895291245316148 -0.22721336879924039 -1  5.8895291245316148 -0.22721336879924039 0  
6.0843305260817866 -0.21822735521958017 -1  6.0843305260817866 -0.21822735521958017 0  
6.2774173059866305 -0.20896863858070022 -1  6.2774173059866305 -0.20896863858070022 0  
6.4684841692313606 -0.19948896100629882 -1  6.4684841692313606 -0.19948896100629882 0  
6.6572290167475243 -0.18984013554600676 -1  6.6572290167475243 -0.18984013554600676 0  
6.8433534190353216 -0.18007355103117892 -1  6.8433534190353216 -0.18007355103117892 0  
7.0265630910751602 -0.17023975013543952 -1  7.0265630910751602 -0.17023975013543952 0  
7.2065683547569463 -0.16038799439584342 -1  7.2065683547569463 -0.16038799439584342 0  
7.3830845983930793 -0.15056590078761467 -1  7.3830845983930793 -0.15056590078761467 0  
7.5558327245816637 -0.14081909554258265 -1  7.5558327245816637 -0.14081909554258265 0  
7.7245395932237573 -0.13119092744009464 -1  7.7245395932237573 -0.13119092744009464 0  
7.8889384519083405 -0.12172220484826134 -1  7.8889384519083405 -0.12172220484826134 0  
8.0487693591229945 -0.11245100825178364 -1  8.0487693591229945 -0.11245100825178364 0  
8.203779593701146 -0.10341252167532075 -1  8.203779593701146 -0.10341252167532075 0  
8.3537240552410363 -0.094638935709722191 -1  8.3537240552410363 -0.094638935709722191 0  
8.4983656516306212 -0.086159380289343585 -1  8.4983656516306212 -0.086159380289343585 0  
8.6374756744305952 -0.077999912126678131 -1  8.6374756744305952 -0.077999912126678131 0  
8.7708341591770544 -0.070183546828296334 -1  8.7708341591770544 -0.070183546828296334 0  
8.8982302388337366 -0.062730327030597305 -1  8.8982302388337366 -0.062730327030597305 0  
9.0194624581308105 -0.055657435146222692 -1  9.0194624581308105 -0.055657435146222692 0  
9.1343391605437798 -0.048979331455935998 -1  9.1343391605437798 -0.048979331455935998 0  
9.2426785529104833 -0.042707921095513912 -1  9.2426785529104833 -0.042707921095513912 0  
9.3443098137234735 -0.036852810125266262 -1  9.3443098137234735 -0.036852810125266262 0  
9.4390705783600239 -0.031421299787804384 -1  9.4390705783600239 -0.031421299787804384 0  
9.5268165452888383 -0.026419401595220719 -1  9.5268165452888383 -0.026419401595220719 0  
9.6073906644731153 -0.021849472615790736 -1  9.6073906644731153 -0.021849472615790736 0  
9.6807251576057158 -0.017719028333452218 -1  9.6807251576057158 -0.017719028333452218 0  
9.7465128302347015 -0.014013339444174211 -1  9.7465128302347015 -0.014013339444174211 0  
9.8052510145537983 -0.010783408022775033 -1  9.8052510145537983 -0.010783408022775033 0  
9.8550017390021658 -0.007873898591041345 -1  9.8550017390021658 -0.007873898591041345 0  
9.9110140899118662 -0.0052910977512137585 -1  9.9110140899118662 -0.0052910977512137585 0  
9.9417935340012029 -0.0013104610785893693 -1  9.9417935340012029 -0.0013104610785893693 0  
10.004081079776764 -0.0019863739231095008 -1  10.004081079776764 -0.0019863739231095008 0  
9.9999999999999947 -1.1170246991916086e-16 -1  9.9999999999999947 -1.1170246991916086e-16 0  

0.49999999999999967 4
0.50153514125261323 1
0.50343723370749638 1
0.50520671063253153 1
0.50689940627786156 1
0.50858289748514807 1
0.51034896684240649 1
0.51227688010412842 1
0.5144269403362528 1
0.51684144794695985 1
0.51954871894966159 1
0.52256707907121569 1
0.52590787229729474 1
0.52957751303120226 1
0.53357884217245521 1
0.53791202060011423 1
0.54257512665240282 1
0.54756456220189942 1
0.55287533648194498 1
0.55850126972462955 1
0.56443514361257074 1
0.57066881777608136 1
0.57719332278231938 1
0.58399893868745412 1
0.59107526435370639 1
0.5984112814370609 1
0.60599541571548421 1
0.6138155977274995 1
0.62185932375163866 1
0.63011371799590876 1
0.63856559610420216 1
0.64720152982510726 1
0.65600791297332783 1
0.66497101411379533 1
0.67407682030107308 1
0.68331106451963397 1
0.69265927060116006 1
0.7021067746367381 1
0.71163874610272515 1
0.721240208761455 1
0.73089606313766109 1
0.7405911088727527 1
0.75031006789244015 1
0.76003760814635557 1
0.76975836805438613 1
0.7794569808247831 1
0.78911809969936131 1
0.79872642330982213 1
0.80826672117844556 1
0.81772385911749779 1
0.82708282537130784 1
0.83632875568423393 1
0.8454469590594943 1
0.8544229426562806 1
0.86324243673511369 1
0.87189141879538867 1
0.88035613749924468 1
0.88862313568294882 1
0.89667927314251006 1
0.90451174829255376 1
0.91210811923524049 1
0.91945632408405964 1
0.92654470039010839 1
0.93336200379950607 1
0.93989742576635749 1
0.94614061044710496 1
0.95208167073740479 1
0.95771120349660499 1
0.96302030355180013 1
0.96800057754205049 1
0.97264415606162846 1
0.97694370548695397 1
0.98089243899569944 1
0.98448412611455338 1
0.98771310235941678 1
0.99057427697503209 1
0.99306314071076396 1
0.99517577229769183 1
0.99825962652274169 1
1 4

0 2
1 2

9 0 0 0 0 3 1 77 2 75 2 9.9999999999999964 6.7762635780344027e-18 -1  9.9999999999999964 6.7762635780344027e-18 0  
9.9981420168300623 0.00090433157894598769 -1  9.9981420168300623 0.00090433157894598769 0  
9.968746114975799 0.0063615011043691525 -1  9.968746114975799 0.0063615011043691525 0  
9.9421542508908267 0.013236212242124576 -1  9.9421542508908267 0.013236212242124576 0  
9.8810619660508436 0.026645410858077499 -1  9.8810619660508436 0.026645410858077499 0  
9.8195800565178342 0.040529236865261067 -1  9.8195800565178342 0.040529236865261067 0  
9.7465577209578971 0.056692565587328027 -1  9.7465577209578971 0.056692565587328027 0  
9.6807245754093678 0.071221919501529937 -1  9.6807245754093678 0.071221919501529937 0  
9.607407553104002 0.087287525018069426 -1  9.607407553104002 0.087287525018069426 0  
9.5268314758321289 0.10482045939232131 -1  9.5268314758321289 0.10482045939232131 0  
9.4390898042057749 0.12375783236130264 -1  9.4390898042057749 0.12375783236130264 0  
9.3443316769646625 0.14402714187062715 -1  9.3443316769646625 0.14402714187062715 0  
9.2427037658022524 0.16555130912886737 -1  9.2427037658022524 0.16555130912886737 0  
9.1343676941099261 0.18824735561206737 -1  9.1343676941099261 0.18824735561206737 0  
9.0194944666915635 0.21202705335454919 -1  9.0194944666915635 0.21202705335454919 0  
8.8982657845138355 0.23679704662375722 -1  8.8982657845138355 0.23679704662375722 0  
8.7708732874709092 0.26245914532290943 -1  8.7708732874709092 0.26245914532290943 0  
8.6375183884310722 0.28891063368385939 -1  8.6375183884310722 0.28891063368385939 0  
8.4984119172263668 0.31604462971768416 -1  8.4984119172263668 0.31604462971768416 0  
8.3537737957164229 0.34375046311009555 -1  8.3537737957164229 0.34375046311009555 0  
8.2038326895362275 0.37191411865130247 -1  8.2038326895362275 0.37191411865130247 0  
8.0488256462417365 0.40041870246853295 -1  8.0488256462417365 0.40041870246853295 0  
7.8889977209510054 0.42914495630054023 -1  7.8889977209510054 0.42914495630054023 0  
7.7246015905236431 0.45797181873446813 -1  7.7246015905236431 0.45797181873446813 0  
7.5558971517935447 0.48677700209620139 -1  7.5558971517935447 0.48677700209620139 0  
7.3831511146640647 0.51543763352619043 -1  7.3831511146640647 0.51543763352619043 0  
7.2066365796358838 0.5438309099465175 -1  7.2066365796358838 0.5438309099465175 0  
7.02663260650578 0.57183478041301539 -1  7.02663260650578 0.57183478041301539 0  
6.843423774863977 0.59932867189657124 -1  6.843423774863977 0.59932867189657124 0  
6.6572997338459237 0.62619420651565061 -1  6.6572997338459237 0.62619420651565061 0  
6.4685547467103097 0.65231596429781835 -1  6.4685547467103097 0.65231596429781835 0  
6.2774872258797059 0.67758222677146074 -1  6.2774872258797059 0.67758222677146074 0  
6.0843992617817699 0.70188574648450031 -1  6.0843992617817699 0.70188574648450031 0  
5.889596146635772 0.72512448660938356 -1  5.889596146635772 0.72512448660938356 0  
5.6933858918868898 0.74720237341806706 -1  5.6933858918868898 0.74720237341806706 0  
5.4960787425913518 0.76803001093546808 -1  5.4960787425913518 0.76803001093546808 0  
5.2979866866703684 0.78752538147749906 -1  5.2979866866703684 0.78752538147749906 0  
5.0994229632349546 0.8056145021430291 -1  5.0994229632349546 0.8056145021430291 0  
4.9007015663025744 0.82223204641165015 -1  4.9007015663025744 0.82223204641165015 0  
4.7021367487028485 0.83732190411000784 -1  4.7021367487028485 0.83732190411000784 0  
4.5040425254753576 0.85083772740894337 -1  4.5040425254753576 0.85083772740894337 0  
4.3067321764198345 0.8627432891071507 -1  4.3067321764198345 0.8627432891071507 0  
4.1105177491761919 0.87301314874567681 -1  4.1105177491761919 0.87301314874567681 0  
3.9157095675777001 0.88163193503061965 -1  3.9157095675777001 0.88163193503061965 0  
3.7226157341779582 0.88859834199957144 -1  3.7226157341779582 0.88859834199957144 0  
3.5315416566765983 0.8939113413615104 -1  3.5315416566765983 0.8939113413615104 0  
3.3427895160625352 0.89762141093948689 -1  3.3427895160625352 0.89762141093948689 0  
3.1566579711134843 0.89964303457239414 -1  3.1566579711134843 0.89964303457239414 0  
2.9734375567045115 0.90043919006433271 -1  2.9734375567045115 0.90043919006433271 0  
2.7933995024463032 0.89840526205641957 -1  2.7933995024463032 0.89840526205641957 0  
2.6168487099277695 0.89291636492585613 -1  2.6168487099277695 0.89291636492585613 0  
2.4440638214730623 0.8841549339678082 -1  2.4440638214730623 0.8841549339678082 0  
2.275318891263113 0.87212569241428706 -1  2.275318891263113 0.87212569241428706 0  
2.1108809676673554 0.85691173040976076 -1  2.1108809676673554 0.85691173040976076 0  
1.9510104087757678 0.83860706924419426 -1  1.9510104087757678 0.83860706924419426 0  
1.7959602501947409 0.81733284725608391 -1  1.7959602501947409 0.81733284725608391 0  
1.6459758274856175 0.79323149511999902 -1  1.6459758274856175 0.79323149511999902 0  
1.5012943478410614 0.76646622983835544 -1  1.5012943478410614 0.76646622983835544 0  
1.362144488554129 0.73721885614322469 -1  1.362144488554129 0.73721885614322469 0  
1.2287460037083509 0.70568769839186241 -1  1.2287460037083509 0.70568769839186241 0  
1.1013093407104502 0.67208523635218353 -1  1.1013093407104502 0.67208523635218353 0  
0.9800352672254794 0.6366355740913372 -1  0.9800352672254794 0.6366355740913372 0  
0.86511450213213825 0.59957176437736814 -1  0.86511450213213825 0.59957176437736814 0  
0.7567273477110309 0.56113300282940182 -1  0.7567273477110309 0.56113300282940182 0  
0.65504331458949983 0.52156174390334165 -1  0.65504331458949983 0.52156174390334165 0  
0.56022072490451524 0.48110075136159636 -1  0.56022072490451524 0.48110075136159636 0  
0.47240628883851332 0.43999009346295687 -1  0.47240628883851332 0.43999009346295687 0  
0.39173461012228988 0.39846412644318946 -1  0.39173461012228988 0.39846412644318946 0  
0.31832762868278536 0.35674836658015424 -1  0.31832762868278536 0.35674836658015424 0  
0.25229393645165588 0.31505626381237023 -1  0.25229393645165588 0.31505626381237023 0  
0.19372802104814801 0.27358558436204977 -1  0.19372802104814801 0.27358558436204977 0  
0.14270953718661039 0.23251415118475147 -1  0.14270953718661039 0.23251415118475147 0  
0.099303154431286289 0.19199416157939012 -1  0.099303154431286289 0.19199416157939012 0  
0.063560568825835148 0.15214462053697858 -1  0.063560568825835148 0.15214462053697858 0  
0.041640629045289736 0.12156729139417083 -1  0.041640629045289736 0.12156729139417083 0  
0.031585623282101731 0.10452871858624421 -1  0.031585623282101731 0.10452871858624421 0  
0.029699702237446335 0.1011902889919553 -1  0.029699702237446335 0.1011902889919553 0  

-6.339470726146601e-09 4
0.00079233555995385241 1
0.0031640257220785246 1
0.0049375673764310273 1
0.0096451671375533381 1
0.012571326271153161 1
0.015872724531302992 1
0.019543823502621956 1
0.023578466107251884 1
0.027969887225669805 1
0.032710726553041192 1
0.037793041903664108 1
0.04320832430822609 1
0.048947514393220086 1
0.055001019599142435 1
0.061358733334945827 1
0.068010054811026413 1
0.074943910415718393 1
0.0821487761219441 1
0.089612701069401057 1
0.097323332061477225 1
0.10526793910658926 1
0.113433441722523 1
0.12180643596145846 1
0.13037322204327306 1
0.13911983220736573 1
0.14803205921999785 1
0.15709548463346823 1
0.16629550721615072 1
0.17561737094228697 1
0.18504619284734192 1
0.19456698999525421 1
0.20416470622057167 1
0.21382423721939536 1
0.22353045557294407 1
0.2332682339622327 1
0.24302246736956729 1
0.25277809406336937 1
0.26252011545786352 1
0.27223361410799896 1
0.28190377091115609 1
0.29151588090865355 1
0.3010553678521386 1
0.3105077974751887 1
0.31985889058820821 1
0.32909453440250319 1
0.33820079414173615 1
0.34716392079499409 1
0.35597088381779501 1
0.36461069771430754 1
0.37307293892957405 1
0.38134756601362263 1
0.38942488056079078 1
0.39729548760542904 1
0.4049502582972937 1
0.41238029697136575 1
0.41957691488846849 1
0.42653161306291165 1
0.43323607631822614 1
0.43968218093051981 1
0.44586201824093918 1
0.45176793670782234 1
0.45739260510555646 1
0.46272910161254943 1
0.46777103260535113 1
0.47251269036930266 1
0.47694926067886984 1
0.48107709831014139 1
0.48489409993680349 1
0.48840021841242948 1
0.49159819113140507 1
0.49449459306506749 1
0.49710137844118168 1
0.49943812413408289 1
0.50000000000016631 4

0 2
1 2

1 43.199200900428039 -39.837986036391143 -60 1 0 0 0 0 -1 -0 1 0 
1 -36.800799099571947 -39.837986036391143 -60 0 -1 0 0 -0 -1 1 0 0 
1 -36.800799099571954 40.162013963608864 -60 -1 -8.6736173798840342e-17 0 8.6736173798840342e-17 -1 0 0 0 1 
1 43.199200900428039 40.162013963608871 -60 -8.6736173798840379e-17 1 0 -1 -8.6736173798840379e-17 0 0 0 1 
1 0 0 -60 0 -0 1 1 0 0 -0 1 0 
1 0 0 0 0 -0 1 1 0 0 -0 1 0 
1 0.029699702239120995 0.10119028899491973 -1 0 0 -1 -1 0 -0 0 1 0 
Triangulations 0

TShapes 51
Ve
1.23753854129001e-07
10 6.7762635780344e-18 -1
0 0

0101101
*
Ve
1.23753850492247e-07
10 6.7762635780344e-18 0
0 0

0101101
*
Ed
 1e-07 1 1 0
1  1 0 0 1
2  1 1 0 0 1
2  2 2 0 0 1
0

0101000
+51 0 -50 0 *
Ve
1.23753850492247e-07
0.0296997022391227 0.101190288994923 0
0 0

0101101
*
Ed
 1e-07 1 1 0
1  2 0 0.5 1
2  3 1 0 0.5 1
0

0101000
+48 0 -50 0 *
Ve
1.23753854129001e-07
0.0296997022391227 0.101190288994923 -1
0 0

0101101
*
Ed
 1e-07 1 1 0
1  3 0 0 1
2  4 1 0 0 1
2  5 2 0 0 1
0

0101000
+46 0 -48 0 *
Ed
 1e-07 1 1 0
1  4 0 0.5 1
2  6 1 0 0.5 1
0

0101000
+46 0 -51 0 *
Wi

0101100
+49 0 -47 0 -45 0 +44 0 *
Fa
0  1e-07 1 0

0111000
+43 0 *
Ve
1e-07
43.199200900428 -39.8379860363911 0
0 0

0101101
*
Ve
1e-07
43.199200900428 40.1620139636089 0
0 0

0101101
*
Ed
 1e-07 1 1 0
1  5 0 0 80
0

0101000
+41 0 -40 0 *
Ve
1e-07
43.199200900428 -39.8379860363911 -60
0 0

0101101
*
Ed
 1e-07 1 1 0
1  6 0 0 60
0

0101000
+38 0 -41 0 *
Ve
1e-07
43.199200900428 40.1620139636089 -60
0 0

0101101
*
Ed
 1e-07 1 1 0
1  7 0 0 80
0

0101000
+38 0 -36 0 *
Ed
 1e-07 1 1 0
1  8 0 0 60
0

0101000
+36 0 -40 0 *
Wi

0101100
-39 0 -37 0 +35 0 +34 0 *
Fa
0  1e-07 3 0

0111000
+33 0 *
Ve
1e-07
-36.8007990995719 -39.8379860363911 0
0 0

0101101
*
Ed
 1e-07 1 1 0
1  9 0 0 80
0

0101000
+31 0 -41 0 *
Ve
1e-07
-36.8007990995719 -39.8379860363911 -60
0 0

0101101
*
Ed
 1e-07 1 1 0
1  10 0 0 60
0

0101000
+29 0 -31 0 *
Ed
 1e-07 1 1 0
1  11 0 0 80
0

0101000
+29 0 -38 0 *
Wi

0101100
-30 0 -28 0 +27 0 +37 0 *
Fa
0  1e-07 4 0

0111000
+26 0 *
Ve
1e-07
-36.800799099572 40.1620139636089 0
0 0

0101101
*
Ed
 1e-07 1 1 0
1  12 0 0 80
0

0101000
+24 0 -31 0 *
Ve
1e-07
-36.800799099572 40.1620139636089 -60
0 0

0101101
*
Ed
 1e-07 1 1 0
1  13 0 0 60
0

0101000
+22 0 -24 0 *
Ed
 1e-07 1 1 0
1  14 0 0 80
0

0101000
+22 0 -29 0 *
Wi

0101100
-23 0 -21 0 +20 0 +28 0 *
Fa
0  1e-07 5 0

0111000
+19 0 *
Ed
 1e-07 1 1 0
1  15 0 0 80
0

0101000
+40 0 -24 0 *
Ed
 1e-07 1 1 0
1  16 0 0 80
0

0101000
+36 0 -22 0 *
Wi

0101100
-17 0 -34 0 +16 0 +21 0 *
Fa
0  1e-07 6 0

0111000
+15 0 *
Wi

0101100
-35 0 -27 0 -20 0 -16 0 *
Fa
0  1e-07 7 0

0111000
-13 0 *
Ed
 1.23753850492247e-07 1 1 0
1  17 0 0 0.5
2  7 2 0 0 0.5
0

0101000
+50 0 -48 0 *
Wi

0101100
-11 0 -47 0 *
Wi

0101100
+39 0 +17 0 +23 0 +30 0 *
Fa
0  1e-07 8 0

0111000
+10 0 +9 0 *
Ed
 1.23753854129001e-07 1 1 0
1  18 0 0 0.5
2  8 2 0 0 0.5
0

0101000
+51 0 -46 0 *
Wi

0101100
-11 0 -49 0 +7 0 +45 0 *
Fa
0  1e-07 2 0

0111000
+6 0 *
Wi

0101100
+7 0 +44 0 *
Fa
0  1e-07 9 0

0111000
-4 0 *
Sh

0101100
-42 0 +32 0 +25 0 +18 0 +14 0 -12 0 +8 0 -5 0 -3 0 *
So

0100000
+2 0 *

+1 0 