DBRep_DrawableShape

CASCADE Topology V3, (c) Open Cascade
Locations 0
Curve2ds 32
7 0 0  3 27 25  0 -6.4612232653396999  0.17987035785652894 -6.4612232653396999  0.90016061923080548 -6.4612232653397008  2.3472340885146732 -6.4612232653396999  4.3527427481266994 -6.4612232653396999  6.5605165487785371 -6.4612232653396982  8.7885103551155943 -6.4612232653397008  11.037003930425708 -6.461223265339699  13.306278857707836 -6.4612232653397017  15.59663446734341 -6.4612232653396982  17.908328954955213 -6.4612232653396999  20.241799721084984 -6.4612232653396982  22.596841654182455 -6.4612232653396999  24.97567443999052 -6.4612232653396999  27.371495844203814 -6.4612232653397008  29.735403657527716 -6.4612232653396999  32.078362457500809 -6.461223265339699  34.397866454773705 -6.4612232653396999  36.695010833792246 -6.4612232653397008  38.969917703990205 -6.461223265339699  41.222961909594112 -6.4612232653397008  43.454442766913402 -6.461223265339699  45.664672206444536 -6.4612232653397008  47.671511414484492 -6.4612232653396999  49.118982919458546 -6.4612232653396999  49.839312761101652 -6.4612232653397008  50.0191831202442 -6.4612232653396999 
 0 4 0.56839980818459324 1 2.2735992327383729 1 4.5471984654767459 1 6.8207976982151184 1 9.0943969309534918 1 11.367996163691865 1 13.641595396430237 1 15.91519462916861 1 18.188793861906984 1 20.462393094645357 1 22.73599232738373 1 25.009591560122104 1 27.283190792860474 1 29.556790025598847 1 31.83038925833722 1 34.103988491075597 1 36.377587723813967 1 38.651186956552337 1 40.924786189290714 1 43.198385422029084 1 45.471984654767461 1 47.74558388750583 1 49.450783312059606 1 50.0191831202442 4
7 0 0  3 27 25  0 -6.4612232653396999  0.17987035785652894 -6.4612232653396999  0.90016061923080548 -6.4612232653397008  2.3472340885146732 -6.4612232653396999  4.3527427481266994 -6.4612232653396999  6.5605165487785371 -6.4612232653396982  8.7885103551155943 -6.4612232653397008  11.037003930425708 -6.461223265339699  13.306278857707836 -6.4612232653397017  15.59663446734341 -6.4612232653396982  17.908328954955213 -6.4612232653396999  20.241799721084984 -6.4612232653396982  22.596841654182455 -6.4612232653396999  24.97567443999052 -6.4612232653396999  27.371495844203814 -6.4612232653397008  29.735403657527716 -6.4612232653396999  32.078362457500809 -6.461223265339699  34.397866454773705 -6.4612232653396999  36.695010833792246 -6.4612232653397008  38.969917703990205 -6.461223265339699  41.222961909594112 -6.4612232653397008  43.454442766913402 -6.461223265339699  45.664672206444536 -6.4612232653397008  47.671511414484492 -6.4612232653396999  49.118982919458546 -6.4612232653396999  49.839312761101652 -6.4612232653397008  50.0191831202442 -6.4612232653396999 
 0 4 0.56839980818459324 1 2.2735992327383729 1 4.5471984654767459 1 6.8207976982151184 1 9.0943969309534918 1 11.367996163691865 1 13.641595396430237 1 15.91519462916861 1 18.188793861906984 1 20.462393094645357 1 22.73599232738373 1 25.009591560122104 1 27.283190792860474 1 29.556790025598847 1 31.83038925833722 1 34.103988491075597 1 36.377587723813967 1 38.651186956552337 1 40.924786189290714 1 43.198385422029084 1 45.471984654767461 1 47.74558388750583 1 49.450783312059606 1 50.0191831202442 4
7 0 0  3 27 25  50.0191831202442 -6.4612232653396999  50.019183120244193 -6.4385845803705335  50.019183120244193 -6.3479526630134684  50.0191831202442 -6.1660698035318102  50.019183120244215 -5.9144798674157739  50.019183120244186 -5.6381274009748656  50.019183120244222 -5.3598646115232169  50.019183120244186 -5.0796716225020599  50.019183120244207 -4.797528280513581  50.019183120244207 -4.5134141506516805  50.019183120244193 -4.2273085115246696  50.019183120244222 -3.9391903502292203  50.019183120244193 -3.6490383572027705  50.0191831202442 -3.3568309209706193  50.019183120244193 -3.0625461227798163  50.019183120244193 -2.7661617311186455  50.019183120244207 -2.4676551961180695  50.019183120244193 -2.167003643833004  50.019183120244207 -1.8641838703983016  50.019183120244179 -1.5591723360635794  50.019183120244215 -1.2519451590765738  50.019183120244193 -0.94247810951301703  50.019183120244207 -0.63074660267123894  50.019183120244193 -0.34289410254294872  50.019183120244193 -0.13219657764766454  50.0191831202442 -0.026458818341074976  50.0191831202442 0 
 -6.4612232653396999 4 -6.3878002736881125 1 -6.1675312987333495 1 -5.8738393321269999 1 -5.5801473655206504 1 -5.2864553989142999 1 -4.9927634323079495 1 -4.6990714657015999 1 -4.4053794990952504 1 -4.1116875324889 1 -3.81799556588255 1 -3.5243035992762 1 -3.23061163266985 1 -2.9369196660635 1 -2.64322769945715 1 -2.3495357328508 1 -2.0558437662444495 1 -1.7621517996381 1 -1.4684598330317504 1 -1.1747678664254 1 -0.88107589981904955 1 -0.58738393321269999 1 -0.29369196660635044 1 -0.073422991651587499 1 0 4
1 -1.1365280229383861e-15 2.2112486542237554e-15 1 -4.9131249446643232e-17 
1 0 -58.657177703852597 1 0 
7 0 0  3 27 25  0 0  0 -0.026458818341073373  0 -0.13219657764765838  0 -0.34289410254294816  0 -0.63074660267123672  0 -0.94247810951301081  0 -1.2519451590765682  0 -1.559172336063577  0 -1.8641838703982934  0 -2.1670036438329983  0 -2.4676551961180624  0 -2.7661617311186375  0 -3.0625461227798114  0 -3.3568309209706051  0 -3.6490383572027665  0 -3.9391903502292092  0 -4.2273085115246598  0 -4.5134141506516734  0 -4.7975282805135739  0 -5.0796716225020484  0 -5.3598646115232107  0 -5.6381274009748523  0 -5.914479867415765  0 -6.1660698035318031  0 -6.3479526630134613  -0 -6.4385845803705291  0 -6.4612232653396999 
 0 4 0.073422991651587499 1 0.29369196660635 1 0.58738393321269999 1 0.88107589981904999 1 1.1747678664254 1 1.46845983303175 1 1.7621517996381 1 2.05584376624445 1 2.3495357328508 1 2.64322769945715 1 2.9369196660635 1 3.23061163266985 1 3.5243035992762 1 3.81799556588255 1 4.1116875324889 1 4.4053794990952504 1 4.6990714657015999 1 4.9927634323079495 1 5.2864553989142999 1 5.5801473655206504 1 5.8738393321269999 1 6.1675312987333495 1 6.3878002736881125 1 6.4612232653396999 4
7 0 0  3 27 25  0 -50.948085287175303  0 -50.975069709560714  0 -51.083100505351425  0 -51.29990890692784  0 -51.599831483985788  0 -51.929301266033619  0 -52.261076511975673  0 -52.595181505263334  0 -52.931640871747121  0 -53.270479585526182  0 -53.611722975181259  0 -53.955396730071833  0 -54.301526906786492  0 -54.650139935727388  0 -55.001262627838159  0 -55.354922181477107  0 -55.711146189440512  0 -56.06996264613835  0 -56.431399954929404  0 -56.795486935610406  0 -57.162252832097387  0 -57.531727320177112  0 -57.903940515803768  0 -58.24767444332484  0 -58.49929625888992  -0 -58.62557781740901  0 -58.657177703852597 
 50.948085287175303 4 51.035688610092087 1 51.298498578842455 1 51.6489118705096 1 51.999325162176753 1 52.349738453843905 1 52.70015174551105 1 53.050565037178202 1 53.400978328845348 1 53.7513916205125 1 54.101804912179652 1 54.452218203846797 1 54.80263149551395 1 55.153044787181102 1 55.503458078848247 1 55.8538713705154 1 56.204284662182545 1 56.554697953849697 1 56.905111245516849 1 57.255524537183994 1 57.605937828851147 1 57.956351120518299 1 58.306764412185444 1 58.569574380935812 1 58.657177703852597 4
7 0 0  3 27 25  50.0191831202442 -58.657177703852597  50.019183120244193 -58.625577817409003  50.019183120244207 -58.499296258889935  50.019183120244193 -58.247674443324826  50.019183120244207 -57.903940515803761  50.0191831202442 -57.531727320177112  50.019183120244186 -57.162252832097359  50.019183120244207 -56.795486935610413  50.019183120244186 -56.43139995492939  50.019183120244215 -56.069962646138336  50.019183120244193 -55.711146189440505  50.0191831202442 -55.354922181477086  50.019183120244193 -55.001262627838145  50.019183120244193 -54.650139935727388  50.0191831202442 -54.301526906786471  50.0191831202442 -53.955396730071833  50.0191831202442 -53.611722975181245  50.019183120244193 -53.270479585526161  50.019183120244193 -52.931640871747128  50.0191831202442 -52.595181505263298  50.019183120244207 -52.261076511975681  50.019183120244193 -51.929301266033612  50.019183120244215 -51.599831483985774  50.019183120244186 -51.299908906927854  50.019183120244207 -51.083100505351375  50.019183120244193 -50.975069709560707  50.0191831202442 -50.948085287175303 
 -58.657177703852597 4 -58.569574380935812 1 -58.306764412185444 1 -57.956351120518299 1 -57.605937828851147 1 -57.255524537183994 1 -56.905111245516849 1 -56.554697953849697 1 -56.204284662182552 1 -55.8538713705154 1 -55.503458078848247 1 -55.153044787181102 1 -54.80263149551395 1 -54.452218203846797 1 -54.101804912179652 1 -53.7513916205125 1 -53.400978328845355 1 -53.050565037178202 1 -52.70015174551105 1 -52.349738453843905 1 -51.999325162176753 1 -51.6489118705096 1 -51.298498578842455 1 -51.035688610092087 1 -50.948085287175303 4
7 0 0  3 27 25  0 -50.948085287175303  0.17975261486496694 -50.948085287175296  0.89958129111688556 -50.948085287175317  2.3458072267850381 -50.948085287175296  4.3503363654700653 -50.94808528717531  6.5572798465104656 -50.948085287175303  8.7846883177655002 -50.948085287175303  11.032848479096341 -50.948085287175303  13.302048999456847 -50.948085287175317  15.592596665585491 -50.948085287175296  17.904756703699999 -50.948085287175303  20.2389761206875 -50.948085287175296  22.595050816428706 -50.948085287175303  24.975234614948437 -50.94808528717531  27.372636872751457 -50.948085287175296  29.737695010115342 -50.948085287175303  32.081527128762659 -50.948085287175289  34.401597615016726 -50.94808528717531  36.699020628203584 -50.94808528717531  38.97392385866042 -50.94808528717531  41.226691012371113 -50.948085287175303  43.457629090131007 -50.94808528717531  45.667057733607386 -50.948085287175296  47.67293316952771 -50.948085287175303  49.119561788188683 -50.948085287175282  49.839430504045836 -50.94808528717531  50.0191831202442 -50.948085287175303 
 0 4 0.56839980818459324 1 2.2735992327383729 1 4.5471984654767459 1 6.8207976982151184 1 9.0943969309534918 1 11.367996163691865 1 13.641595396430237 1 15.91519462916861 1 18.188793861906984 1 20.462393094645357 1 22.73599232738373 1 25.009591560122104 1 27.283190792860474 1 29.556790025598847 1 31.83038925833722 1 34.103988491075597 1 36.377587723813967 1 38.651186956552337 1 40.924786189290714 1 43.198385422029084 1 45.471984654767461 1 47.74558388750583 1 49.450783312059606 1 50.0191831202442 4
7 0 0  3 27 25  0 -50.948085287175303  0.17975261486496694 -50.948085287175296  0.89958129111688556 -50.948085287175317  2.3458072267850381 -50.948085287175296  4.3503363654700653 -50.94808528717531  6.5572798465104656 -50.948085287175303  8.7846883177654984 -50.948085287175303  11.032848479096344 -50.948085287175303  13.302048999456844 -50.948085287175317  15.592596665585496 -50.948085287175296  17.904756703699999 -50.948085287175303  20.238976120687489 -50.948085287175296  22.595050816428714 -50.948085287175303  24.975234614948445 -50.94808528717531  27.372636872751457 -50.948085287175296  29.737695010115353 -50.948085287175303  32.081527128762659 -50.948085287175289  34.401597615016726 -50.94808528717531  36.699020628203584 -50.94808528717531  38.97392385866042 -50.94808528717531  41.226691012371113 -50.948085287175303  43.457629090131007 -50.94808528717531  45.667057733607386 -50.948085287175296  47.67293316952771 -50.948085287175303  49.119561788188683 -50.948085287175282  49.839430504045836 -50.94808528717531  50.0191831202442 -50.948085287175303 
 0 4 0.56839980818459324 1 2.2735992327383729 1 4.5471984654767459 1 6.8207976982151184 1 9.0943969309534918 1 11.367996163691865 1 13.641595396430237 1 15.91519462916861 1 18.188793861906984 1 20.462393094645357 1 22.73599232738373 1 25.009591560122104 1 27.283190792860474 1 29.556790025598847 1 31.83038925833722 1 34.103988491075597 1 36.377587723813967 1 38.651186956552337 1 40.924786189290714 1 43.198385422029084 1 45.471984654767461 1 47.74558388750583 1 49.450783312059606 1 50.0191831202442 4
7 0 0  3 27 25  0 -43.992883277889398  0 -44.021392936589315  0 -44.135325122386945  0 -44.362340244609669  0 -44.672459617180969  0 -45.008273202773076  0 -45.341615905516235  0 -45.67251489625415  0 -46.000996948708099  0 -46.3270884469623  0 -46.650815392457318  0 -46.972203410920166  0 -47.291277759121215  0 -47.608063331491749  0 -47.922584666598283  0 -48.234865953478746  0 -48.544931037843618  0 -48.852803428146032  0 -49.158506301522081  0 -49.462062509610703  0 -49.763494584234635  0 -50.062824743024201  0 -50.36007489469457  0 -50.630667332537271  0 -50.826273526985325  -0 -50.923739735371001  0 -50.948085287175303 
 43.992883277889398 4 44.071919664358553 1 44.309028823766027 1 44.625174369642664 1 44.941319915519294 1 45.257465461395924 1 45.573611007272561 1 45.889756553149191 1 46.20590209902582 1 46.522047644902457 1 46.838193190779087 1 47.154338736655717 1 47.470484282532354 1 47.786629828408984 1 48.102775374285613 1 48.41892092016225 1 48.73506646603888 1 49.05121201191551 1 49.367357557792147 1 49.683503103668777 1 49.999648649545406 1 50.315794195422036 1 50.631939741298673 1 50.869048900706147 1 50.948085287175303 4
7 0 0  3 27 25  50.0191831202442 -50.948085287175303  50.0191831202442 -50.923739735370994  50.019183120244222 -50.826273526985325  50.019183120244179 -50.630667332537271  50.019183120244207 -50.360074894694549  50.0191831202442 -50.062824743024194  50.0191831202442 -49.763494584234628  50.019183120244215 -49.462062509610689  50.019183120244186 -49.158506301522074  50.0191831202442 -48.852803428146011  50.019183120244207 -48.544931037843618  50.019183120244186 -48.234865953478717  50.0191831202442 -47.922584666598304  50.019183120244207 -47.608063331491749  50.0191831202442 -47.291277759121186  50.0191831202442 -46.97220341092018  50.019183120244193 -46.650815392457311  50.019183120244207 -46.327088446962293  50.0191831202442 -46.000996948708099  50.019183120244193 -45.672514896254135  50.019183120244207 -45.34161590551625  50.0191831202442 -45.008273202773076  50.019183120244207 -44.672459617181012  50.019183120244193 -44.362340244609669  50.019183120244193 -44.135325122386902  50.0191831202442 -44.021392936589315  50.0191831202442 -43.992883277889398 
 -50.948085287175303 4 -50.869048900706147 1 -50.631939741298673 1 -50.315794195422036 1 -49.999648649545406 1 -49.683503103668777 1 -49.36735755779214 1 -49.05121201191551 1 -48.73506646603888 1 -48.418920920162243 1 -48.102775374285613 1 -47.786629828408984 1 -47.470484282532354 1 -47.154338736655717 1 -46.838193190779087 1 -46.522047644902457 1 -46.20590209902582 1 -45.889756553149191 1 -45.573611007272561 1 -45.257465461395924 1 -44.941319915519294 1 -44.625174369642664 1 -44.309028823766027 1 -44.071919664358553 1 -43.992883277889398 4
1 -5.5296638715352386e-17 -43.992883277889405 1 1.4205404635497199e-16 
1 0 -43.992883277889398 1 0 
7 0 0  3 27 25  0 -35.789812117266003  0 -35.818553848693426  0 -35.933618757762872  0 -36.164534480367514  0 -36.483949251302199  0 -36.83480215554858  0 -37.188080376945152  0 -37.543809150469826  0 -37.902014062571062  0 -38.262721057096094  0 -38.62595644160978  0 -38.991746893775861  0 -39.360119467892041  0 -39.731101601559224  0 -40.104721122493991  0 -40.481006255486825  0 -40.859985629509744  0 -41.24168828497691  0 -41.626143681163875  0 -42.013381703781121  0 -42.403432672739456  0 -42.796327349983599  0 -43.192096947878298  0 -43.557550120651726  0 -43.825048505880829  -0 -43.95929156301365  0 -43.992883277889398 
 35.789812117266003 4 35.88302883500036 1 36.162678988203432 1 36.535545859140854 1 36.908412730078282 1 37.281279601015711 1 37.65414647195314 1 38.027013342890562 1 38.399880213827991 1 38.77274708476542 1 39.145613955702849 1 39.518480826640271 1 39.8913476975777 1 40.264214568515129 1 40.637081439452558 1 41.00994831038998 1 41.382815181327409 1 41.755682052264838 1 42.12854892320226 1 42.501415794139689 1 42.874282665077118 1 43.247149536014547 1 43.620016406951969 1 43.89966656015504 1 43.992883277889398 4
7 0 0  3 27 25  50.0191831202442 -43.992883277889398  50.0191831202442 -43.959291563013657  50.0191831202442 -43.825048505880829  50.019183120244215 -43.557550120651726  50.019183120244186 -43.192096947878305  50.0191831202442 -42.796327349983599  50.0191831202442 -42.403432672739449  50.019183120244207 -42.013381703781121  50.0191831202442 -41.626143681163889  50.019183120244193 -41.241688284976888  50.0191831202442 -40.859985629509758  50.019183120244193 -40.481006255486811  50.019183120244193 -40.104721122493991  50.0191831202442 -39.731101601559217  50.019183120244193 -39.360119467892041  50.019183120244207 -38.991746893775861  50.019183120244193 -38.62595644160978  50.019183120244193 -38.26272105709608  50.019183120244207 -37.902014062571098  50.0191831202442 -37.543809150469812  50.019183120244193 -37.188080376945152  50.0191831202442 -36.83480215554858  50.0191831202442 -36.483949251302207  50.019183120244207 -36.1645344803675  50.0191831202442 -35.933618757762858  50.0191831202442 -35.818553848693426  50.0191831202442 -35.789812117266003 
 -43.992883277889398 4 -43.89966656015504 1 -43.620016406951969 1 -43.247149536014547 1 -42.874282665077118 1 -42.501415794139689 1 -42.12854892320226 1 -41.755682052264838 1 -41.382815181327409 1 -41.00994831038998 1 -40.637081439452551 1 -40.264214568515129 1 -39.8913476975777 1 -39.518480826640271 1 -39.145613955702842 1 -38.77274708476542 1 -38.399880213827991 1 -38.027013342890562 1 -37.65414647195314 1 -37.281279601015711 1 -36.908412730078282 1 -36.535545859140854 1 -36.162678988203432 1 -35.88302883500036 1 -35.789812117266003 4
7 0 0  3 27 25  0 -35.789812117266003  0.17987035785653249 -35.789812117265996  0.90016061923082014 -35.78981211726601  2.3472340885146865 -35.789812117266003  4.3527427481267109 -35.789812117266003  6.5605165487785495 -35.789812117265996  8.788510355115605 -35.78981211726601  11.037003930425723 -35.789812117265996  13.306278857707841 -35.78981211726601  15.596634467343444 -35.789812117266003  17.90832895495523 -35.789812117265996  20.241799721085009 -35.789812117265996  22.596841654182469 -35.78981211726601  24.975674439990527 -35.789812117266003  27.371495844203782 -35.789812117266003  29.735403657527684 -35.789812117266003  32.078362457500774 -35.789812117266003  34.397866454773649 -35.789812117266003  36.695010833792225 -35.78981211726601  38.969917703990177 -35.789812117266003  41.222961909594098 -35.78981211726601  43.454442766913388 -35.789812117266003  45.664672206444536 -35.78981211726601  47.671511414484492 -35.789812117265996  49.118982919458546 -35.789812117265996  49.839312761101652 -35.789812117266003  50.0191831202442 -35.789812117266003 
 0 4 0.56839980818459324 1 2.2735992327383729 1 4.5471984654767459 1 6.8207976982151184 1 9.0943969309534918 1 11.367996163691865 1 13.641595396430237 1 15.91519462916861 1 18.188793861906984 1 20.462393094645357 1 22.73599232738373 1 25.009591560122104 1 27.283190792860474 1 29.556790025598847 1 31.83038925833722 1 34.103988491075597 1 36.377587723813967 1 38.651186956552337 1 40.924786189290714 1 43.198385422029084 1 45.471984654767461 1 47.74558388750583 1 49.450783312059606 1 50.0191831202442 4
7 0 0  3 27 25  0 -35.789812117266003  0.17987035785653249 -35.789812117265996  0.90016061923082014 -35.78981211726601  2.3472340885146865 -35.789812117266003  4.3527427481267109 -35.789812117266003  6.5605165487785495 -35.789812117265996  8.788510355115605 -35.78981211726601  11.037003930425723 -35.789812117265996  13.306278857707841 -35.78981211726601  15.596634467343444 -35.789812117266003  17.90832895495523 -35.789812117265996  20.241799721085009 -35.789812117265996  22.596841654182469 -35.78981211726601  24.975674439990527 -35.789812117266003  27.371495844203782 -35.789812117266003  29.735403657527684 -35.789812117266003  32.078362457500774 -35.789812117266003  34.397866454773649 -35.789812117266003  36.695010833792225 -35.78981211726601  38.969917703990177 -35.789812117266003  41.222961909594098 -35.78981211726601  43.454442766913388 -35.789812117266003  45.664672206444536 -35.78981211726601  47.671511414484492 -35.789812117265996  49.118982919458546 -35.789812117265996  49.839312761101652 -35.789812117266003  50.0191831202442 -35.789812117266003 
 0 4 0.56839980818459324 1 2.2735992327383729 1 4.5471984654767459 1 6.8207976982151184 1 9.0943969309534918 1 11.367996163691865 1 13.641595396430237 1 15.91519462916861 1 18.188793861906984 1 20.462393094645357 1 22.73599232738373 1 25.009591560122104 1 27.283190792860474 1 29.556790025598847 1 31.83038925833722 1 34.103988491075597 1 36.377587723813967 1 38.651186956552337 1 40.924786189290714 1 43.198385422029084 1 45.471984654767461 1 47.74558388750583 1 49.450783312059606 1 50.0191831202442 4
7 0 0  3 27 25  0 -29.328588851926298  0 -29.355047670267371  0 -29.460785429573971  0 -29.671482954469244  0 -29.959335454597532  0 -30.271066961439324  0 -30.580534011002868  0 -30.887761187989874  0 -31.192772722324598  0 -31.495592495759301  0 -31.796244048044375  0 -32.094750583044942  0 -32.391134974706112  0 -32.685419772896921  0 -32.977627209129075  0 -33.267779202155502  0 -33.555897363450988  0 -33.842003002577989  0 -34.12611713243988  0 -34.408260474428374  0 -34.688453463449513  0 -34.966716252901172  0 -35.24306871934207  0 -35.494658655458117  0 -35.676541514939764  -0 -35.767173432296843  0 -35.789812117266003 
 29.328588851926298 4 29.402011843577885 1 29.622280818532648 1 29.915972785138997 1 30.20966475174535 1 30.5033567183517 1 30.79704868495805 1 31.090740651564399 1 31.384432618170749 1 31.678124584777102 1 31.971816551383451 1 32.265508517989801 1 32.559200484596147 1 32.8528924512025 1 33.146584417808853 1 33.440276384415199 1 33.733968351021552 1 34.027660317627905 1 34.321352284234251 1 34.615044250840604 1 34.90873621744695 1 35.202428184053304 1 35.49612015065965 1 35.716389125614413 1 35.789812117266003 4
7 0 0  3 27 25  50.0191831202442 -35.789812117266003  50.0191831202442 -35.767173432296843  50.019183120244179 -35.67654151493975  50.019183120244215 -35.494658655458132  50.019183120244193 -35.24306871934207  50.0191831202442 -34.966716252901165  50.0191831202442 -34.688453463449527  50.0191831202442 -34.408260474428353  50.0191831202442 -34.126117132439887  50.019183120244207 -33.842003002577982  50.019183120244193 -33.555897363450953  50.019183120244207 -33.267779202155538  50.019183120244207 -32.977627209129061  50.019183120244186 -32.685419772896907  50.019183120244222 -32.391134974706127  50.019183120244186 -32.094750583044934  50.019183120244207 -31.796244048044375  50.0191831202442 -31.495592495759297  50.019183120244193 -31.192772722324602  50.0191831202442 -30.887761187989881  50.019183120244193 -30.580534011002865  50.019183120244207 -30.271066961439328  50.019183120244193 -29.959335454597525  50.0191831202442 -29.671482954469244  50.0191831202442 -29.460785429573964  50.0191831202442 -29.355047670267368  50.0191831202442 -29.328588851926298 
 -35.789812117266003 4 -35.716389125614413 1 -35.49612015065965 1 -35.202428184053304 1 -34.90873621744695 1 -34.615044250840604 1 -34.321352284234251 1 -34.027660317627898 1 -33.733968351021552 1 -33.440276384415199 1 -33.146584417808853 1 -32.8528924512025 1 -32.559200484596147 1 -32.265508517989801 1 -31.971816551383448 1 -31.678124584777102 1 -31.384432618170749 1 -31.090740651564399 1 -30.79704868495805 1 -30.503356718351696 1 -30.20966475174535 1 -29.915972785138997 1 -29.622280818532648 1 -29.402011843577885 1 -29.328588851926298 4
1 -1.4261138667551129e-15 -29.328588851926298 1 0 
1 -4.572073974668654e-19 -29.328588851926298 1 0 
7 0 0  3 27 25  0 -21.619496435249001  0 -21.646480857634405  0 -21.754511653425102  0 -21.971320055001556  0 -22.271242632059483  0 -22.600712414107321  0 -22.932487660049372  0 -23.266592653337032  0 -23.603052019820822  0 -23.941890733599877  0 -24.283134123254968  0 -24.626807878145527  0 -24.972938054860187  0 -25.321551083801111  0 -25.672673775911843  0 -26.026333329550813  0 -26.382557337514204  0 -26.741373794212056  0 -27.102811103003102  0 -27.466898083684118  0 -27.833663980171075  0 -28.203138468250817  0 -28.575351663877456  0 -28.919085591398549  0 -29.170707406963626  -0 -29.296988965482715  0 -29.328588851926298 
 21.619496435249001 4 21.707099758165789 1 21.96990972691615 1 22.320323018583302 1 22.670736310250451 1 23.0211496019176 1 23.371562893584752 1 23.721976185251901 1 24.072389476919049 1 24.422802768586202 1 24.77321606025335 1 25.123629351920499 1 25.474042643587651 1 25.8244559352548 1 26.174869226921949 1 26.525282518589101 1 26.87569581025625 1 27.226109101923399 1 27.576522393590547 1 27.926935685257696 1 28.277348976924849 1 28.627762268591997 1 28.978175560259146 1 29.24098552900951 1 29.328588851926298 4
7 0 0  3 27 25  50.0191831202442 -29.328588851926298  50.0191831202442 -29.296988965482715  50.019183120244193 -29.170707406963611  50.019183120244193 -28.919085591398542  50.0191831202442 -28.575351663877449  50.019183120244193 -28.203138468250813  50.0191831202442 -27.833663980171078  50.019183120244207 -27.466898083684111  50.019183120244186 -27.102811103003102  50.019183120244215 -26.741373794212048  50.019183120244193 -26.382557337514214  50.019183120244207 -26.026333329550809  50.019183120244186 -25.672673775911839  50.019183120244207 -25.321551083801111  50.019183120244207 -24.972938054860187  50.019183120244193 -24.626807878145524  50.0191831202442 -24.28313412325496  50.019183120244207 -23.941890733599877  50.019183120244186 -23.603052019820829  50.019183120244215 -23.266592653337035  50.019183120244193 -22.932487660049368  50.019183120244193 -22.600712414107324  50.0191831202442 -22.271242632059487  50.0191831202442 -21.971320055001538  50.019183120244193 -21.754511653425119  50.0191831202442 -21.646480857634408  50.0191831202442 -21.619496435249001 
 -29.328588851926298 4 -29.24098552900951 1 -28.97817556025915 1 -28.627762268591997 1 -28.277348976924849 1 -27.9269356852577 1 -27.576522393590547 1 -27.226109101923399 1 -26.87569581025625 1 -26.525282518589101 1 -26.174869226921949 1 -25.8244559352548 1 -25.474042643587651 1 -25.123629351920499 1 -24.77321606025335 1 -24.422802768586202 1 -24.072389476919049 1 -23.721976185251901 1 -23.371562893584752 1 -23.0211496019176 1 -22.670736310250451 1 -22.320323018583302 1 -21.96990972691615 1 -21.707099758165789 1 -21.619496435249001 4
7 0 0  3 27 25  0 -21.619496435249001  0.17975261486496746 -21.619496435248998  0.89958129111688734 -21.619496435249005  2.3458072267850345 -21.619496435248998  4.3503363654700644 -21.619496435249005  6.5572798465104638 -21.619496435248998  8.7846883177654842 -21.619496435249005  11.032848479096332 -21.619496435249001  13.302048999456829 -21.619496435249001  15.592596665585472 -21.619496435248994  17.904756703699974 -21.619496435249001  20.238976120687486 -21.619496435248994  22.595050816428703 -21.619496435249008  24.975234614948445 -21.619496435248998  27.37263687275145 -21.619496435249005  29.737695010115313 -21.619496435249001  32.081527128762623 -21.619496435249001  34.401597615016684 -21.619496435249001  36.699020628203556 -21.619496435249005  38.973923858660385 -21.619496435248998  41.226691012371106 -21.619496435249005  43.457629090130993 -21.619496435249005  45.667057733607407 -21.619496435248998  47.672933169527667 -21.619496435248998  49.119561788188719 -21.619496435248998  49.839430504045836 -21.619496435249001  50.0191831202442 -21.619496435249001 
 0 4 0.56839980818459324 1 2.2735992327383729 1 4.5471984654767459 1 6.8207976982151184 1 9.0943969309534918 1 11.367996163691865 1 13.641595396430237 1 15.91519462916861 1 18.188793861906984 1 20.462393094645357 1 22.73599232738373 1 25.009591560122104 1 27.283190792860474 1 29.556790025598847 1 31.83038925833722 1 34.103988491075597 1 36.377587723813967 1 38.651186956552337 1 40.924786189290714 1 43.198385422029084 1 45.471984654767461 1 47.74558388750583 1 49.450783312059606 1 50.0191831202442 4
7 0 0  3 27 25  0 -21.619496435249001  0.17975261486496746 -21.619496435248998  0.89958129111688734 -21.619496435249005  2.3458072267850345 -21.619496435248998  4.3503363654700644 -21.619496435249005  6.5572798465104638 -21.619496435248998  8.7846883177654842 -21.619496435249005  11.032848479096332 -21.619496435249001  13.302048999456829 -21.619496435249001  15.592596665585472 -21.619496435248994  17.904756703699974 -21.619496435249001  20.238976120687486 -21.619496435248994  22.595050816428703 -21.619496435249008  24.975234614948445 -21.619496435248998  27.37263687275145 -21.619496435249005  29.737695010115313 -21.619496435249001  32.081527128762623 -21.619496435249001  34.401597615016684 -21.619496435249001  36.699020628203556 -21.619496435249005  38.973923858660385 -21.619496435248998  41.226691012371106 -21.619496435249005  43.457629090130993 -21.619496435249005  45.667057733607407 -21.619496435248998  47.672933169527667 -21.619496435248998  49.119561788188719 -21.619496435248998  49.839430504045836 -21.619496435249001  50.0191831202442 -21.619496435249001 
 0 4 0.56839980818459324 1 2.2735992327383729 1 4.5471984654767459 1 6.8207976982151184 1 9.0943969309534918 1 11.367996163691865 1 13.641595396430237 1 15.91519462916861 1 18.188793861906984 1 20.462393094645357 1 22.73599232738373 1 25.009591560122104 1 27.283190792860474 1 29.556790025598847 1 31.83038925833722 1 34.103988491075597 1 36.377587723813967 1 38.651186956552337 1 40.924786189290714 1 43.198385422029084 1 45.471984654767461 1 47.74558388750583 1 49.450783312059606 1 50.0191831202442 4
7 0 0  3 27 25  0 -14.664294425963099  0 -14.692804084663022  0 -14.806736270460627  0 -15.033751392683346  0 -15.343870765254703  0 -15.679684350846774  0 -16.013027053589951  0 -16.343926044327834  0 -16.672408096781815  0 -16.998499595035998  0 -17.322226540531013  0 -17.643614558993868  0 -17.962688907194895  0 -18.279474479565437  0 -18.593995814671985  0 -18.906277101552423  0 -19.216342185917313  0 -19.524214576219723  0 -19.829917449595772  0 -20.133473657684384  0 -20.434905732308341  0 -20.734235891097903  0 -21.031486042768258  0 -21.30207848061098  0 -21.497684675059013  -0 -21.595150883444695  0 -21.619496435249001 
 14.664294425963099 4 14.743330812432257 1 14.980439971839731 1 15.296585517716363 1 15.612731063592996 1 15.928876609469627 1 16.245022155346259 1 16.561167701222892 1 16.877313247099522 1 17.193458792976156 1 17.509604338852785 1 17.825749884729419 1 18.141895430606048 1 18.458040976482682 1 18.774186522359315 1 19.090332068235945 1 19.406477614112578 1 19.722623159989212 1 20.038768705865841 1 20.354914251742475 1 20.671059797619105 1 20.987205343495738 1 21.303350889372368 1 21.540460048779842 1 21.619496435249001 4
7 0 0  3 27 25  50.0191831202442 -21.619496435249001  50.0191831202442 -21.595150883444695  50.019183120244215 -21.49768467505903  50.0191831202442 -21.302078480610977  50.0191831202442 -21.031486042768258  50.0191831202442 -20.734235891097899  50.019183120244186 -20.434905732308323  50.019183120244207 -20.133473657684402  50.019183120244207 -19.829917449595776  50.019183120244186 -19.52421457621972  50.0191831202442 -19.216342185917309  50.019183120244193 -18.90627710155243  50.019183120244207 -18.593995814671981  50.0191831202442 -18.279474479565437  50.019183120244193 -17.962688907194899  50.0191831202442 -17.64361455899386  50.019183120244193 -17.322226540531005  50.019183120244207 -16.998499595036005  50.019183120244186 -16.67240809678179  50.0191831202442 -16.343926044327841  50.019183120244193 -16.013027053589937  50.0191831202442 -15.679684350846777  50.019183120244179 -15.343870765254692  50.019183120244215 -15.033751392683364  50.019183120244193 -14.806736270460622  50.0191831202442 -14.692804084663019  50.0191831202442 -14.664294425963099 
 -21.619496435249001 4 -21.540460048779842 1 -21.303350889372368 1 -20.987205343495738 1 -20.671059797619105 1 -20.354914251742475 1 -20.038768705865841 1 -19.722623159989208 1 -19.406477614112578 1 -19.090332068235945 1 -18.774186522359315 1 -18.458040976482682 1 -18.141895430606048 1 -17.825749884729419 1 -17.509604338852785 1 -17.193458792976156 1 -16.877313247099522 1 -16.561167701222892 1 -16.245022155346259 1 -15.928876609469626 1 -15.612731063592996 1 -15.296585517716363 1 -14.980439971839731 1 -14.743330812432257 1 -14.664294425963099 4
1 1.0569605403358832e-15 -14.664294425963099 1 0 
1 0 -14.664294425963099 1 -1.06540534766229e-16 
7 0 0  3 27 25  0 -6.4612232653396999  0 -6.4899649967671182  0 -6.6050299058365578  0 -6.8359456284411904  0 -7.1553603993759065  0 -7.506213303622272  0 -7.8594915250188473  0 -8.215220298543521  0 -8.5734252106447659  0 -8.9341322051697851  0 -9.2973675896834838  0 -9.6631580418495506  0 -10.031530615965741  0 -10.402512749632919  0 -10.776132270567691  0 -11.152417403560515  0 -11.53139677758346  0 -11.913099433050597  0 -12.297554829237576  0 -12.684792851854818  0 -13.07484382081315  0 -13.467738498057297  0 -13.863508095952005  0 -14.228961268725406  0 -14.496459653954551  -0 -14.630702711087354  0 -14.664294425963099 
 6.4612232653396999 4 6.5544399830740563 1 6.8340901362771271 1 7.2069570072145543 1 7.5798238781519816 1 7.9526907490894088 1 8.3255576200268351 1 8.6984244909642641 1 9.0712913619016895 1 9.4441582328391185 1 9.8170251037765439 1 10.189891974713973 1 10.562758845651398 1 10.935625716588827 1 11.308492587526253 1 11.681359458463682 1 12.054226329401107 1 12.427093200338536 1 12.799960071275962 1 13.172826942213391 1 13.545693813150816 1 13.918560684088245 1 14.29142755502567 1 14.571077708228742 1 14.664294425963099 4
7 0 0  3 27 25  50.0191831202442 -14.664294425963099  50.0191831202442 -14.630702711087354  50.019183120244193 -14.496459653954545  50.019183120244207 -14.228961268725421  50.019183120244193 -13.863508095952005  50.0191831202442 -13.467738498057296  50.0191831202442 -13.074843820813156  50.019183120244193 -12.684792851854816  50.0191831202442 -12.297554829237592  50.019183120244193 -11.913099433050595  50.0191831202442 -11.531396777583463  50.019183120244193 -11.152417403560516  50.019183120244186 -10.776132270567688  50.0191831202442 -10.402512749632926  50.019183120244193 -10.031530615965748  50.019183120244193 -9.6631580418495524  50.019183120244193 -9.2973675896834891  50.0191831202442 -8.9341322051697869  50.0191831202442 -8.5734252106447784  50.0191831202442 -8.215220298543521  50.0191831202442 -7.8594915250188588  50.0191831202442 -7.5062133036222747  50.0191831202442 -7.1553603993759145  50.019183120244186 -6.8359456284411948  50.0191831202442 -6.6050299058365809  50.0191831202442 -6.4899649967671236  50.0191831202442 -6.4612232653396999 
 -14.664294425963099 4 -14.571077708228742 1 -14.291427555025672 1 -13.918560684088245 1 -13.545693813150818 1 -13.172826942213391 1 -12.799960071275963 1 -12.427093200338536 1 -12.054226329401109 1 -11.681359458463682 1 -11.308492587526255 1 -10.935625716588827 1 -10.5627588456514 1 -10.189891974713973 1 -9.8170251037765457 1 -9.4441582328391185 1 -9.0712913619016913 1 -8.6984244909642641 1 -8.3255576200268369 1 -7.9526907490894096 1 -7.5798238781519824 1 -7.2069570072145552 1 -6.834090136277128 1 -6.5544399830740563 1 -6.4612232653396999 4
Curves 24
7 1 0  3 7 3  -12.3489161684916 -0.49735802184045602 -8.1787983406845299  1 -13.7192331264275 0.53300816249151295 -1.43430735614878  1.0559016039114399 -13.312323552896601 0.90198415054564196 2.9447230402964899  1.0544705698508201 -11.006502597250501 0.70148517842963598 6.0936047677920797  1 -8.8036869387575596 0.50994286712943504 9.1018201103949696  1.05228355477221 -4.4413198427132796 -0.23671611654191901 11.5858768920508  1.05639797827985 3.1647911361682 -1.79083609721652 13.5317658805766  1
 0 4 25.606914367930699 3 50.0191831202442 4
7 1 0  2 3 2  3.1647911361682 -1.79083609721652 13.5317658805766  1 4.1295882302512199 -2.8840414841142201 12.5687320576857  0.94156896156397896 4.3847227994056404 -4.5938414759066299 12.3140637745914  1
 -6.4612232653396999 3 0 3
7 0 0  3 5 3  -12.453051190271999 -5.0206901544951803 -8.1787983406845299  -14.277712990267499 -5.0913371613661003 -2.0776623888610901  -13.607509931710601 -5.0988621660120002 7.1023828446128299  -3.07407367267332 -4.80743113945862 11.596794042599999  4.3847227994056404 -4.5938414759066299 12.3140637745914 
 0 4 25.606914367930699 1 50.0191831202442 4
7 1 0  2 3 2  -12.453051190271999 -5.0206901544951803 -8.1787983406845299  1 -11.5919351721487 -2.77764980068492 -8.1787983406845299  0.94156896156397896 -12.3489161684916 -0.49735802184045602 -8.1787983406845299  1
 0 3 6.4612232653396999 3
7 1 0  2 3 2  -16.255436311252499 -8.8601548563716594 -8.1787983406845299  1 -13.510744337087999 -7.7757758343866801 -8.1787983406845299  0.91552285198016004 -12.453051190271999 -5.0206901544951803 -8.1787983406845299  1
 50.948085287175303 3 58.657177703852597 3
7 1 0  2 3 2  4.3847227994056404 -4.5938414759066299 12.3140637745914  1 4.6980999514165598 -6.6939577153955296 12.0012593532695  0.91552285198016004 3.8152497691391298 -8.4405365249163307 12.8824960312123  1
 -58.657177703852597 3 -50.948085287175303 3
7 1 0  3 7 3  -16.255436311252499 -8.8601548563716594 -8.1787983406845299  1 -15.5672760661691 -11.011991637336701 -1.3274924598198601  1.05666061393293 -13.9616853383411 -11.929237386296 3.0476055817907901  1.0551743093522099 -11.006502597250501 -11.848000812924999 6.0936047677920797  1 -8.1832651793914302 -11.770391353973199 9.0036037865037493  1.05296040969452 -3.5703328083604702 -10.7702276995819 11.287196239031999  1.0571634192781201 3.8152497691391298 -8.4405365249163307 12.8824960312123  1
 0 4 25.606914367930699 3 50.0191831202442 4
7 1 0  2 3 2  -21.1306089240923 -8.8838100395367299 -8.1787983406845299  1 -18.688415966941001 -9.8213818808897102 -8.1787983406845299  0.931817409453643 -16.255436311252499 -8.8601548563716594 -8.1787983406845299  1
 43.992883277889398 3 50.948085287175303 3
7 1 0  2 3 2  3.8152497691391298 -8.4405365249163307 12.8824960312123  1 3.0326641264804199 -9.9887578738398499 13.6636514138427  0.931817409453643 1.71510516180663 -10.38124944294 14.978802396796301  1
 -50.948085287175303 3 -43.992883277889398 3
7 0 0  3 5 3  -21.1306089240923 -8.8838100395367299 -8.1787983406845299  -21.511130125560602 -10.607516907411799 -0.136471858181059  -18.495893706994899 -12.5627247744501 11.3909798217513  -6.3001236670041898 -11.6126799262435 15.321456016604801  1.71510516180663 -10.38124944294 14.978802396796301 
 0 4 25.606914367930699 1 50.0191831202442 4
7 1 0  2 3 2  -25.097863830914299 -4.7295844383711803 -8.1787983406845299  1 -24.096825430984701 -7.7450625609335102 -8.1787983406845193  0.90395769078920296 -21.1306089240923 -8.8838100395367299 -8.1787983406845299  1
 35.789812117266003 3 43.992883277889398 3
7 1 0  2 3 2  1.71510516180663 -10.38124944294 14.978802396796301  1 0.11483637945045901 -10.857958282703001 16.576146514618401  0.90395769078920296 -1.1610198758369099 -9.4122937593112397 17.849671004404001  1
 -43.992883277889398 3 -35.789812117266003 3
7 1 0  3 7 3  -25.097863830914299 -4.7295844383711803 -8.1787983406845299  1 -26.444517628279801 -9.0079215104656694 3.3787999611350599  1.0559016039114399 -25.4790578417023 -11.194245786102501 10.155604131634201  1.0544705698508201 -21.9282073328921 -11.848000812924999 13.8994951679596  1 -18.535979899698699 -12.472551390616999 17.476139650400899  1.05228355477221 -12.1259658191891 -11.828040898095299 19.003037769638901  1.05639797827985 -1.1610198758369099 -9.4122937593112397 17.849671004404001  1
 0 4 25.606914367930699 3 50.0191831202442 4
7 1 0  2 3 2  -24.993728809133898 -0.20625230571644601 -8.1787983406845299  1 -25.8548448272572 -2.4492926595267202 -8.1787983406845299  0.94156896156397896 -25.097863830914299 -4.7295844383711803 -8.1787983406845193  1
 29.328588851926298 3 35.789812117266003 3
7 1 0  2 3 2  -1.1610198758369099 -9.4122937593112397 17.849671004404001  1 -2.1258169699199301 -8.3190883724135407 18.812704827294901  0.94156896156397896 -2.3809515390743501 -6.6092883806211304 19.067373110389099  1
 -35.789812117266003 3 -29.328588851926298 3
7 0 0  3 5 3  -24.993728809133898 -0.20625230571644601 -8.1787983406845299  -26.697388818534002 -3.0837290306861198 1.99647040606813  -25.046686546357499 -6.9281731165867102 16.2758163917158  -11.647657090042699 -7.3608647613212197 20.186881471979198  -2.3809515390743501 -6.6092883806211304 19.067373110389099 
 0 4 25.606914367930699 1 50.0191831202442 4
7 1 0  2 3 2  -21.191343688153399 3.63321239616003 -8.1787983406845299  1 -23.936035662318002 2.5488333741750502 -8.1787983406845299  0.91552285198016004 -24.993728809133898 -0.20625230571644601 -8.1787983406845299  1
 21.619496435249001 3 29.328588851926298 3
7 1 0  2 3 2  -2.3809515390743501 -6.6092883806211304 19.067373110389099  1 -2.69432869108527 -4.5091721411322396 19.380177531711102  0.91552285198016004 -1.81147850880784 -2.7625933316114399 18.4989408537683  1
 -29.328588851926298 3 -21.619496435249001 3
7 1 0  3 7 3  -21.191343688153399 3.63321239616003 -8.1787983406845299  1 -24.586553257642599 2.5334116732637502 3.2967557106968699  1.05666061393293 -24.8181300558552 1.63528873411967 10.066333726836399  1.0551743093522099 -21.9282073328921 0.70148517842963898 13.8994951679596  1 -19.167316152545101 -0.190625181683338 17.561510602335002  1.05296040969452 -13.0195100887727 -1.2932638143589399 19.287115496667798  1.0571634192781201 -1.81147850880784 -2.7625933316114302 18.4989408537683  1
 0 4 25.606914367930699 3 50.0191831202442 4
7 1 0  2 3 2  -16.316171075313601 3.6568675793251 -8.1787983406845299  1 -18.7583640324649 4.5944394206780803 -8.1787983406845299  0.931817409453643 -21.191343688153399 3.63321239616003 -8.1787983406845299  1
 14.664294425963099 3 21.619496435249001 3
7 1 0  2 3 2  -1.81147850880784 -2.7625933316114399 18.4989408537683  1 -1.0288928661491299 -1.21437198268791 17.717785471137901  0.931817409453643 0.28866609852466402 -0.82188041358775699 16.402634488184301  1
 -21.619496435249001 3 -14.664294425963099 3
7 0 0  3 5 3  -16.316171075313601 3.6568675793251 -8.1787983406845299  -19.4639716832408 2.43245071535963 0.0552798753881052  -20.158302771073298 0.53568949185141501 11.9872194145774  -8.4216070957117992 -0.55561597453633704 16.462219497974399  0.28866609852466402 -0.82188041358775699 16.402634488184301 
 0 4 25.606914367930699 1 50.0191831202442 4
7 1 0  2 3 2  -12.3489161684916 -0.49735802184045602 -8.1787983406845299  1 -13.3499545684212 2.5181201007218799 -8.1787983406845299  0.90395769078920296 -16.316171075313601 3.6568675793251 -8.1787983406845299  1
 6.4612232653396999 3 14.664294425963099 3
7 1 0  2 3 2  0.28866609852466402 -0.82188041358775699 16.402634488184301  1 1.8889348808808299 -0.34517157382477298 14.805290370362099  0.90395769078920296 3.1647911361682 -1.79083609721652 13.5317658805766  1
 -14.664294425963099 3 -6.4612232653396999 3
Polygon3D 0
PolygonOnTriangulations 0
Surfaces 10
9 1 1 0 0 3 2 5 3 3 2 -12.3489161684916 -0.49735802184045103 -8.1787983406845193  0.85561961474662596 -11.5919351721487 -2.7776498006849102 -8.1787983406845299  0.87094854858429904 -12.453051190271999 -5.0206901544951803 -8.1787983406845299  1 
-13.7192331264275 0.53300816249151695 -1.43430735614878  0.95165004162834099 -13.55357248882 -2.3319767907348301 -1.3829710794927501  0.95678337959272397 -14.277712990267499 -5.0913371613661003 -2.0776623888610901  1 
-12.9601196773586 1.22135430407989 6.7350282507230199  1.04817052140509 -13.2475331529267 -1.97115436361055 6.8969874872539396  1.04305623434838 -13.607509931710601 -5.0988621660120002 7.1023828446128299  1 
-4.4413198427132796 -0.23671611654191799 11.5858768920508  0.952097407828569 -4.0362104556758602 -2.3945503964055299 11.2167724543955  0.95718324871173499 -3.07407367267332 -4.80743113945862 11.596794042599999  1 
3.1647911361682 -1.79083609721652 13.5317658805766  0.85561961474662596 4.1295882302512199 -2.8840414841142201 12.5687320576857  0.87094854858429904 4.3847227994056404 -4.5938414759066299 12.3140637745914  1 

0 4
25.606914367930699 1
50.0191831202442 4

-6.4612232653396999 3
0 3

9 1 1 0 0 3 2 5 3 3 2 -16.316171075313601 3.6568675793251 -8.1787983406845299  1 -13.3499545684212 2.5181201007218799 -8.1787983406845299  0.83615823260224797 -12.3489161684916 -0.49735802184045103 -8.1787983406845193  0.85561961474662596 
-19.4639716832408 2.43245071535963 0.0552798753881052  1 -16.011818689547599 1.6589521522049699 -0.0139162400932134  0.94513283352639299 -13.7192331264275 0.53300816249151695 -1.43430735614878  0.95165004162834099 
-20.158302771073298 0.53568949185141501 11.9872194145774  1 -16.336132477304002 0.63669673476849198 9.2024780926120293  1.05466354276332 -12.9601196773586 1.22135430407989 6.7350282507230199  1.04817052140509 
-8.4216070957117992 -0.55561597453633704 16.462219497974399  1 -7.0501579198919098 -0.030486996871320199 13.552699268449199  0.94564050130128297 -4.4413198427132796 -0.23671611654191799 11.5858768920508  0.952097407828569 
0.28866609852466402 -0.82188041358775699 16.402634488184301  1 1.8889348808808299 -0.34517157382477398 14.805290370362099  0.83615823260224797 3.1647911361682 -1.79083609721652 13.5317658805766  0.85561961474662596 

0 4
25.606914367930699 1
50.0191831202442 4

-14.664294425963099 3
-6.4612232653396999 3

9 1 1 0 0 3 2 5 3 3 2 -12.453051190271999 -5.0206901544951803 -8.1787983406845299  1 -13.510744337087999 -7.7757758343866801 -8.1787983406845299  0.84602458008117398 -16.255436311252499 -8.8601548563716594 -8.1787983406845299  0.85394044624418097 
-14.277712990267499 -5.0913371613661003 -2.0776623888610901  1 -14.4428605170253 -8.3973344663436507 -1.1491469129316301  0.94843686605857702 -15.5672760661691 -11.011991637336701 -1.3274924598198601  0.95108772336710501 
-13.607509931710601 -5.0988621660120002 7.1023828446128299  1 -13.017588599501 -8.7705790042755805 6.9514522294413998  1.05137177219774 -12.5735164166075 -12.7222738807332 6.8302477119665204  1.0487307527838099 
-3.07407367267332 -4.80743113945862 11.596794042599999  1 -3.6363174536950198 -7.7576511435929003 10.860755381254901  0.94891396271139905 -3.5703328083604702 -10.7702276995819 11.287196239031999  0.95154029251253303 
4.3847227994056404 -4.5938414759066299 12.3140637745914  1 4.6980999514165598 -6.6939577153955199 12.0012593532695  0.84602458008117398 3.81524976913914 -8.4405365249163307 12.8824960312123  0.85394044624418097 

0 4
25.606914367930699 1
50.0191831202442 4

-58.657177703852597 3
-50.948085287175303 3

9 1 1 0 0 3 2 5 3 3 2 -16.255436311252499 -8.8601548563716594 -8.1787983406845299  0.85394044624418097 -18.688415966941001 -9.8213818808897102 -8.1787983406845299  0.86108220110537403 -21.1306089240923 -8.8838100395367299 -8.1787983406845299  1 
-15.5672760661691 -11.011991637336701 -1.3274924598198601  0.95108772336710501 -18.324240211186002 -11.210077946923199 -0.238317838304232  0.95347934706054005 -21.511130125560602 -10.607516907411799 -0.136471858181059  1 
-12.5735164166075 -12.7222738807332 6.8302477119665204  1.0487307527838099 -15.364556011903201 -12.379209422694499 9.0028863281340001  1.04634800491396 -18.495893706994899 -12.5627247744501 11.3909798217513  1 
-3.5703328083604702 -10.7702276995819 11.287196239031999  0.95154029251253303 -5.26633579088654 -11.3165261710315 12.9244011857116  0.95390978730161902 -6.3001236670041898 -11.6126799262435 15.321456016604801  1 
3.81524976913914 -8.4405365249163307 12.8824960312123  0.85394044624418097 3.0326641264804199 -9.9887578738398499 13.6636514138427  0.86108220110537403 1.71510516180663 -10.38124944294 14.978802396796301  1 

0 4
25.606914367930699 1
50.0191831202442 4

-50.948085287175303 3
-43.992883277889398 3

9 1 1 0 0 3 2 5 3 3 2 -21.1306089240923 -8.8838100395367299 -8.1787983406845299  1 -24.096825430984701 -7.7450625609335102 -8.1787983406845193  0.83615823260224797 -25.097863830914299 -4.7295844383711803 -8.1787983406845299  0.85561961474662596 
-21.511130125560602 -10.607516907411799 -0.136471858181059  1 -24.0362192556682 -10.176628933658 2.2473067932767798  0.94513283352639299 -26.444517628279801 -9.0079215104656694 3.3787999611350599  0.95165004162834099 
-18.495893706994899 -12.5627247744501 11.3909798217513  1 -21.1331001412549 -12.4813058586819 13.474395893902299  1.05466354276332 -24.643396307474799 -13.0866364624392 16.021321843558301  1.04817052140509 
-6.3001236670041898 -11.6126799262435 15.321456016604801  1 -9.7801947517569197 -12.0195114943636 16.865913136141401  0.94564050130128297 -12.1259658191891 -11.828040898095299 19.003037769638901  0.952097407828568 
1.71510516180663 -10.38124944294 14.978802396796301  1 0.11483637945045901 -10.857958282703001 16.576146514618401  0.83615823260224797 -1.1610198758369099 -9.4122937593112397 17.849671004404001  0.85561961474662596 

0 4
25.606914367930699 1
50.0191831202442 4

-43.992883277889398 3
-35.789812117266003 3

9 1 1 0 0 3 2 5 3 3 2 -25.097863830914299 -4.7295844383711803 -8.1787983406845299  0.85561961474662596 -25.8548448272572 -2.4492926595267202 -8.1787983406845299  0.87094854858429904 -24.993728809133898 -0.20625230571644601 -8.1787983406845299  1 
-26.444517628279801 -9.0079215104656694 3.3787999611350599  0.95165004162834099 -26.7002106883388 -6.1096637024416003 3.1026814651915302  0.95678337959272397 -26.697388818534002 -3.0837290306861198 1.99647040606813  1 
-24.643396307474799 -13.0866364624392 16.021321843558301  1.04817052140509 -24.462929362286399 -9.9105923008730095 15.922659307203901  1.04305623434838 -25.046686546357499 -6.9281731165867102 16.2758163917158  1 
-12.1259658191891 -11.828040898095299 19.003037769638901  0.952097407828568 -12.3263668210635 -9.6816911198269704 19.504664715813899  0.95718324871173499 -11.647657090042699 -7.3608647613212197 20.186881471979198  1 
-1.1610198758369099 -9.4122937593112397 17.849671004404001  0.85561961474662596 -2.1258169699199301 -8.3190883724135407 18.812704827294901  0.87094854858429904 -2.3809515390743501 -6.6092883806211304 19.067373110389099  1 

0 4
25.606914367930699 1
50.0191831202442 4

-35.789812117266003 3
-29.328588851926298 3

9 1 1 0 0 3 2 5 3 3 2 -24.993728809133898 -0.20625230571644601 -8.1787983406845299  1 -23.936035662318002 2.5488333741750502 -8.1787983406845299  0.84602458008117398 -21.191343688153399 3.63321239616003 -8.1787983406845299  0.85394044624418097 
-26.697388818534002 -3.0837290306861198 1.99647040606813  1 -25.664039156330301 -0.098589065777514695 3.2355785204145202  0.94843686605857702 -24.586553257642599 2.5334116732637502 3.2967557106968699  0.95108772336710501 
-25.046686546357499 -6.9281731165867102 16.2758163917158  1 -24.519514444995199 -3.0844788274129402 15.765591120082201  1.05137177219774 -25.018347775540398 0.85878552542060704 15.9192062256511  1.0487307527838099 
-11.647657090042699 -7.3608647613212197 20.186881471979198  1 -13.060220568721499 -4.2998545855665604 19.644484901225699  0.94891396271139905 -13.0195100887727 -1.2932638143589399 19.287115496667798  0.95154029251253303 
-2.3809515390743501 -6.6092883806211304 19.067373110389099  1 -2.69432869108527 -4.5091721411322396 19.380177531711102  0.84602458008117398 -1.81147850880784 -2.7625933316114399 18.4989408537683  0.85394044624418097 

0 4
25.606914367930699 1
50.0191831202442 4

-29.328588851926298 3
-21.619496435249001 3

9 1 1 0 0 3 2 5 3 3 2 -21.191343688153399 3.63321239616003 -8.1787983406845299  0.85394044624418097 -18.7583640324649 4.5944394206780803 -8.1787983406845299  0.86108220110537403 -16.316171075313601 3.6568675793251 -8.1787983406845299  1 
-24.586553257642599 2.5334116732637502 3.2967557106968699  0.95108772336710501 -21.8717054845444 2.7470627304078299 2.1024299526189201  0.95347934706054005 -19.4639716832408 2.43245071535963 0.0552798753881052  1 
-25.018347775540398 0.85878552542060704 15.9192062256511  1.0487307527838099 -22.2769513152348 0.50807846600740902 13.7759490828249  1.04634800491396 -20.158302771073298 0.53568949185141501 11.9872194145774  1 
-13.0195100887727 -1.2932638143589399 19.287115496667798  0.95154029251253303 -11.227750089745999 -0.75233748048870297 17.711900976149401  0.95390978730161902 -8.4216070957117992 -0.55561597453633704 16.462219497974399  1 
-1.81147850880784 -2.7625933316114399 18.4989408537683  0.85394044624418097 -1.0288928661491299 -1.21437198268791 17.717785471137901  0.86108220110537403 0.28866609852466402 -0.82188041358775699 16.402634488184301  1 

0 4
25.606914367930699 1
50.0191831202442 4

-21.619496435249001 3
-14.664294425963099 3

1 -2.76825297751029 -0.24004370673600001 19.4539667134955 0.70645973756861102 1.1664393190123999e-16 0.70775323326318296 0.70775323326318296 0 -0.70645973756861102 -8.2404241519920943e-17 1.0000000000000002 -8.2555119943633135e-17 
1 -25.9974739238083 -9.9655400939053909 -8.1787983406845299 0 0 -1 -1 0 -0 0 1 0 
Triangulations 0

TShapes 62
Ve
1e-07
-12.3489161684916 -0.497358021840456 -8.17879834068453
0 0

0101101
*
Ve
1e-07
3.1647911361682 -1.79083609721652 13.5317658805766
0 0

0101101
*
Ed
 1e-07 1 1 0
1  1 0 0 50.0191831202442
2  1 1 0 0 50.0191831202442
2  2 2 0 0 50.0191831202442
0

0101000
+62 0 -61 0 *
Ve
1e-07
4.38472279940564 -4.59384147590663 12.3140637745914
0 0

0101101
*
Ed
 1e-07 1 1 0
1  2 0 -6.4612232653397 0
2  3 1 0 -6.4612232653397 0
0

0101000
+61 0 -59 0 *
Ve
1e-07
-12.453051190272 -5.02069015449518 -8.17879834068453
0 0

0101101
*
Ed
 1e-07 1 1 0
1  3 0 0 50.0191831202442
2  4 1 0 0 50.0191831202442
2  5 3 0 0 50.0191831202442
0

0101000
+57 0 -59 0 *
Ed
 1e-07 1 1 0
1  4 0 0 6.4612232653397
2  6 1 0 0 6.4612232653397
0

0101000
+57 0 -62 0 *
Wi

0101100
+60 0 +58 0 -56 0 +55 0 *
Fa
0  1e-07 1 0

0111000
+54 0 *
Ve
1e-07
-16.2554363112525 -8.86015485637166 -8.17879834068453
0 0

0101101
*
Ed
 1e-07 1 1 0
1  5 0 50.9480852871753 58.6571777038526
2  7 3 0 50.9480852871753 58.6571777038526
0

0101000
+52 0 -57 0 *
Ve
1e-07
3.81524976913913 -8.44053652491633 12.8824960312123
0 0

0101101
*
Ed
 1e-07 1 1 0
1  6 0 -58.6571777038526 -50.9480852871753
2  8 3 0 -58.6571777038526 -50.9480852871753
0

0101000
+59 0 -50 0 *
Ed
 1e-07 1 1 0
1  7 0 0 50.0191831202442
2  9 3 0 0 50.0191831202442
2  10 4 0 0 50.0191831202442
0

0101000
+52 0 -50 0 *
Wi

0101100
+51 0 +56 0 +49 0 -48 0 *
Fa
0  1e-07 3 0

0111000
+47 0 *
Ve
1e-07
-21.1306089240923 -8.88381003953673 -8.17879834068453
0 0

0101101
*
Ed
 1e-07 1 1 0
1  8 0 43.9928832778894 50.9480852871753
2  11 4 0 43.9928832778894 50.9480852871753
0

0101000
+45 0 -52 0 *
Ve
1e-07
1.71510516180663 -10.38124944294 14.9788023967963
0 0

0101101
*
Ed
 1e-07 1 1 0
1  9 0 -50.9480852871753 -43.9928832778894
2  12 4 0 -50.9480852871753 -43.9928832778894
0

0101000
+50 0 -43 0 *
Ed
 1e-07 1 1 0
1  10 0 0 50.0191831202442
2  13 4 0 0 50.0191831202442
2  14 5 0 0 50.0191831202442
0

0101000
+45 0 -43 0 *
Wi

0101100
+44 0 +48 0 +42 0 -41 0 *
Fa
0  1e-07 4 0

0111000
+40 0 *
Ve
1e-07
-25.0978638309143 -4.72958443837118 -8.17879834068453
0 0

0101101
*
Ed
 1e-07 1 1 0
1  11 0 35.789812117266 43.9928832778894
2  15 5 0 35.789812117266 43.9928832778894
0

0101000
+38 0 -45 0 *
Ve
1e-07
-1.16101987583691 -9.41229375931124 17.849671004404
0 0

0101101
*
Ed
 1e-07 1 1 0
1  12 0 -43.9928832778894 -35.789812117266
2  16 5 0 -43.9928832778894 -35.789812117266
0

0101000
+43 0 -36 0 *
Ed
 1e-07 1 1 0
1  13 0 0 50.0191831202442
2  17 5 0 0 50.0191831202442
2  18 6 0 0 50.0191831202442
0

0101000
+38 0 -36 0 *
Wi

0101100
+37 0 +41 0 +35 0 -34 0 *
Fa
0  1e-07 5 0

0111000
+33 0 *
Ve
1e-07
-24.9937288091339 -0.206252305716446 -8.17879834068453
0 0

0101101
*
Ed
 1e-07 1 1 0
1  14 0 29.3285888519263 35.789812117266
2  19 6 0 29.3285888519263 35.789812117266
0

0101000
+31 0 -38 0 *
Ve
1e-07
-2.38095153907435 -6.60928838062113 19.0673731103891
0 0

0101101
*
Ed
 1e-07 1 1 0
1  15 0 -35.789812117266 -29.3285888519263
2  20 6 0 -35.789812117266 -29.3285888519263
0

0101000
+36 0 -29 0 *
Ed
 1e-07 1 1 0
1  16 0 0 50.0191831202442
2  21 6 0 0 50.0191831202442
2  22 7 0 0 50.0191831202442
0

0101000
+31 0 -29 0 *
Wi

0101100
+30 0 +34 0 +28 0 -27 0 *
Fa
0  1e-07 6 0

0111000
+26 0 *
Ve
1e-07
-21.1913436881534 3.63321239616003 -8.17879834068453
0 0

0101101
*
Ed
 1e-07 1 1 0
1  17 0 21.619496435249 29.3285888519263
2  23 7 0 21.619496435249 29.3285888519263
0

0101000
+24 0 -31 0 *
Ve
1e-07
-1.81147850880784 -2.76259333161144 18.4989408537683
0 0

0101101
*
Ed
 1e-07 1 1 0
1  18 0 -29.3285888519263 -21.619496435249
2  24 7 0 -29.3285888519263 -21.619496435249
0

0101000
+29 0 -22 0 *
Ed
 1e-07 1 1 0
1  19 0 0 50.0191831202442
2  25 7 0 0 50.0191831202442
2  26 8 0 0 50.0191831202442
0

0101000
+24 0 -22 0 *
Wi

0101100
+23 0 +27 0 +21 0 -20 0 *
Fa
0  1e-07 7 0

0111000
+19 0 *
Ve
1e-07
-16.3161710753136 3.6568675793251 -8.17879834068453
0 0

0101101
*
Ed
 1e-07 1 1 0
1  20 0 14.6642944259631 21.619496435249
2  27 8 0 14.6642944259631 21.619496435249
0

0101000
+17 0 -24 0 *
Ve
1e-07
0.288666098524664 -0.821880413587757 16.4026344881843
0 0

0101101
*
Ed
 1e-07 1 1 0
1  21 0 -21.619496435249 -14.6642944259631
2  28 8 0 -21.619496435249 -14.6642944259631
0

0101000
+22 0 -15 0 *
Ed
 1e-07 1 1 0
1  22 0 0 50.0191831202442
2  29 8 0 0 50.0191831202442
2  30 2 0 0 50.0191831202442
0

0101000
+17 0 -15 0 *
Wi

0101100
+16 0 +20 0 +14 0 -13 0 *
Fa
0  1e-07 8 0

0111000
+12 0 *
Ed
 1e-07 1 1 0
1  23 0 6.4612232653397 14.6642944259631
2  31 2 0 6.4612232653397 14.6642944259631
0

0101000
+62 0 -17 0 *
Ed
 1e-07 1 1 0
1  24 0 -14.6642944259631 -6.4612232653397
2  32 2 0 -14.6642944259631 -6.4612232653397
0

0101000
+15 0 -61 0 *
Wi

0101100
+10 0 +13 0 +9 0 -60 0 *
Fa
0  1e-07 2 0

0111000
+8 0 *
Wi

0101100
-9 0 -14 0 -21 0 -28 0 -35 0 -42 0 -49 0 -58 0 *
Fa
0  1e-07 9 0

0111000
+6 0 *
Wi

0101100
-51 0 -44 0 -37 0 -30 0 -23 0 -16 0 -10 0 -55 0 *
Fa
0  1e-07 10 0

0111000
+4 0 *
Sh

0101100
+53 0 +46 0 +39 0 +32 0 +25 0 +18 0 +11 0 +7 0 +5 0 +3 0 
*
So

0100000
+2 0 *

+1 0 