DBRep_DrawableShape

CASCADE Topology V3, (c) Open Cascade
Locations 0
Curve2ds 4
1 0 20 1 0 
1 6.2831853071795862 0 0 1 
1 0 0 0 1 
1 0 0 1 0 
Curves 3
2 0 0 20 0 0 1 1 0 -0 -0 1 0 10
1 10 -2.4492935982947065e-15 0 0 0 1 
2 0 0 0 0 0 1 1 0 -0 -0 1 0 10
Polygon3D 0
PolygonOnTriangulations 0
Surfaces 3
2 0 0 0 0 0 1 1 0 -0 -0 1 0 10
1 0 0 20 0 0 1 1 0 -0 -0 1 0 
1 0 0 0 0 0 1 1 0 -0 -0 1 0 
Triangulations 0

TShapes 13
Ve
1e-07
10 0 20
0 0

0101101
*
Ed
 1e-07 1 1 0
1  1 0 0 6.28318530717959
2  1 1 0 0 6.28318530717959
0

0101000
+13 0 -13 0 *
Ve
1e-07
10 -2.44929359829471e-15 0
0 0

0101101
*
Ed
 1e-07 1 1 0
1  2 0 0 20
3  2 3C0 1 0 0 20
0

0101000
+11 0 -13 0 *
Ed
 1e-07 1 1 0
1  3 0 0 6.28318530717959
2  4 1 0 0 6.28318530717959
0

0101000
+11 0 -11 0 *
Wi

0101100
-12 0 -10 0 +9 0 +10 0 *
Fa
0  1e-07 1 0

0111000
+8 0 *
Wi

0101100
+12 0 *
Fa
0  1e-07 2 0

0111000
+6 0 *
Wi

0101100
-9 0 *
Fa
0  1e-07 3 0

0111000
-4 0 *
Sh

0101100
+7 0 +5 0 -3 0 *
So

0100000
+2 0 *

+1 0 