DBRep_DrawableShape

CASCADE Topology V3, (c) Open Cascade
Locations 0
Curve2ds 80
1 0 0 1 0 
1 0 0 1 0 
1 20 0 0 -1 
1 0 0 0 1 
1 0 -20 1 0 
1 0 0 1 0 
1 0 0 0 -1 
1 0 0 0 1 
1 0 0 1 0 
1 0 20 1 0 
1 20 0 0 -1 
1 20 0 0 1 
1 0 0 0 -1 
1 20 0 0 1 
1 0 -20 1 0 
1 0 20 1 0 
1 0 0 1 0 
1 0 0 1 0 
1 5 -5 1 0 
1 0 0 0 -1 
1 0 0 0 1 
1 5 -5 0 -1 
1 0 -10 1 0 
1 0 0 1 0 
1 5 -15 1 0 
1 10 0 0 -1 
1 0 0 0 1 
1 15 -5 0 -1 
1 0 0 0 1 
1 0 0 1 0 
1 20 0 0 1 
1 0 0 1 0 
1 0 0 0 1 
1 0 20 1 0 
1 20 0 0 1 
1 0 20 1 0 
1 10 0 0 1 
1 0 0 1 0 
1 15 5 0 1 
1 0 0 1 0 
1 0 10 1 0 
1 5 15 1 0 
1 0 0 0 1 
1 0 0 1 0 
1 5 5 0 1 
1 0 0 1 0 
1 0 0 1 0 
1 5 5 1 0 
1 0 0 1 0 
1 0 10 1 0 
1 10 0 0 -1 
1 10 0 0 1 
1 0 -10 1 0 
1 0 10 1 0 
1 0 0 0 -1 
1 10 0 0 1 
1 0 0 0 1 
1 0 0 1 0 
1 10 0 0 1 
1 0 0 1 0 
1 0 0 0 1 
1 0 10 1 0 
1 10 0 0 1 
1 0 10 1 0 
1 10 0 0 -1 
1 0 0 0 1 
1 0 -10 1 0 
1 0 0 1 0 
1 0 0 0 -1 
1 0 0 0 1 
1 10 0 0 -1 
1 10 0 0 1 
1 0 -10 1 0 
1 0 10 1 0 
1 0 0 0 -1 
1 10 0 0 1 
1 0 0 0 1 
1 0 10 1 0 
1 10 0 0 1 
1 0 10 1 0 
Curves 36
1 0 0 0 0 0 1 
1 0 0 20 -0 1 0 
1 0 20 0 0 0 1 
1 0 0 0 -0 1 0 
1 20 0 0 0 0 1 
1 20 0 20 -0 1 0 
1 20 0 0 -0 1 0 
1 20 20 0 0 0 1 
1 20 5 5 0 0 1 
1 20 5 5 -0 1 0 
1 20 15 5 0 0 1 
1 20 5 15 -0 1 0 
1 0 0 0 1 0 -0 
1 0 0 20 1 0 -0 
1 0 20 0 1 0 -0 
1 0 20 20 1 0 -0 
1 5 20 15 1 0 -0 
1 15 20 5 0 0 1 
1 5 20 5 1 0 -0 
1 5 20 5 0 0 1 
1 30 5 5 0 0 1 
1 30 5 15 -0 1 0 
1 30 15 5 0 0 1 
1 30 5 5 -0 1 0 
1 20 5 5 1 0 -0 
1 20 5 15 1 0 -0 
1 20 15 5 1 0 -0 
1 20 15 15 1 0 -0 
1 5 20 15 -0 1 0 
1 5 30 5 0 0 1 
1 5 20 5 -0 1 0 
1 15 20 15 -0 1 0 
1 15 30 5 0 0 1 
1 15 20 5 -0 1 0 
1 5 30 5 1 0 -0 
1 5 30 15 1 0 -0 
Polygon3D 0
PolygonOnTriangulations 0
Surfaces 18
1 0 0 0 1 0 -0 0 0 1 0 -1 0 
1 0 0 0 -0 1 0 0 -0 1 1 0 0 
1 0 0 20 0 0 1 1 0 -0 -0 1 0 
1 0 20 0 -0 1 0 0 -0 1 1 0 0 
1 0 0 0 0 0 1 1 0 -0 -0 1 0 
1 20 0 0 1 0 -0 0 0 1 0 -1 0 
1 20 5 5 1 0 -0 0 0 1 0 -1 0 
1 20 5 5 -0 1 0 0 -0 1 1 0 0 
1 20 5 5 0 0 1 1 0 -0 -0 1 0 
1 20 15 5 -0 1 0 0 -0 1 1 0 0 
1 20 5 15 0 0 1 1 0 -0 -0 1 0 
1 5 20 5 -0 1 0 0 -0 1 1 0 0 
1 5 20 15 0 0 1 1 0 -0 -0 1 0 
1 15 20 5 1 0 -0 0 0 1 0 -1 0 
1 5 20 5 0 0 1 1 0 -0 -0 1 0 
1 5 20 5 1 0 -0 0 0 1 0 -1 0 
1 30 5 5 1 0 -0 0 0 1 0 -1 0 
1 5 30 5 -0 1 0 0 -0 1 1 0 0 
Triangulations 0

TShapes 105
Ve
1e-07
0 0 20
0 0

0101101
*
Ve
1e-07
0 0 0
0 0

0101101
*
Ed
 1e-07 1 1 0
1  1 0 0 20
2  1 1 0 0 20
2  2 2 0 0 20
0

0101000
-105 0 +104 0 *
Ve
1e-07
0 20 20
0 0

0101101
*
Ed
 1e-07 1 1 0
1  2 0 0 20
2  3 1 0 0 20
2  4 3 0 0 20
0

0101000
-102 0 +105 0 *
Ve
1e-07
0 20 0
0 0

0101101
*
Ed
 1e-07 1 1 0
1  3 0 0 20
2  5 1 0 0 20
2  6 4 0 0 20
0

0101000
-102 0 +100 0 *
Ed
 1e-07 1 1 0
1  4 0 0 20
2  7 1 0 0 20
2  8 5 0 0 20
0

0101000
-100 0 +104 0 *
Wi

0101100
-103 0 -101 0 +99 0 +98 0 *
Fa
0  1e-07 1 0

0111000
+97 0 *
Ve
1e-07
20 0 20
0 0

0101101
*
Ve
1e-07
20 0 0
0 0

0101101
*
Ed
 1e-07 1 1 0
1  5 0 0 20
2  9 6 0 0 20
2  10 2 0 0 20
0

0101000
-95 0 +94 0 *
Ve
1e-07
20 20 20
0 0

0101101
*
Ed
 1e-07 1 1 0
1  6 0 0 20
2  11 6 0 0 20
2  12 3 0 0 20
0

0101000
-92 0 +95 0 *
Ve
1e-07
20 20 0
0 0

0101101
*
Ed
 1e-07 1 1 0
1  7 0 0 20
2  13 6 0 0 20
2  14 5 0 0 20
0

0101000
-90 0 +94 0 *
Ed
 1e-07 1 1 0
1  8 0 0 20
2  15 6 0 0 20
2  16 4 0 0 20
0

0101000
-92 0 +90 0 *
Wi

0101100
-93 0 -91 0 +89 0 +88 0 *
Ve
1e-07
20 5 15
0 0

0101101
*
Ve
1e-07
20 5 5
0 0

0101101
*
Ed
 1e-07 1 1 0
1  9 0 0 10
2  17 7 0 0 10
2  18 8 0 0 10
2  19 6 0 0 10
0

0101000
-86 0 +85 0 *
Ve
1e-07
20 15 5
0 0

0101101
*
Ed
 1e-07 1 1 0
1  10 0 0 10
2  20 7 0 0 10
2  21 9 0 0 10
2  22 6 0 0 10
0

0101000
-83 0 +85 0 *
Ve
1e-07
20 15 15
0 0

0101101
*
Ed
 1e-07 1 1 0
1  11 0 0 10
2  23 7 0 0 10
2  24 10 0 0 10
2  25 6 0 0 10
0

0101000
-81 0 +83 0 *
Ed
 1e-07 1 1 0
1  12 0 0 10
2  26 7 0 0 10
2  27 11 0 0 10
2  28 6 0 0 10
0

0101000
-81 0 +86 0 *
Wi

0101100
+84 0 -82 0 -80 0 +79 0 *
Fa
0  1e-07 6 0

0101000
+87 0 +78 0 *
Wi

0101100
-84 0 -79 0 +80 0 +82 0 *
Fa
0  1e-07 7 0

0111000
+76 0 *
Ed
 1e-07 1 1 0
1  13 0 0 20
2  29 2 0 0 20
2  30 5 0 0 20
0

0101000
-94 0 +104 0 *
Ed
 1e-07 1 1 0
1  14 0 0 20
2  31 2 0 0 20
2  32 3 0 0 20
0

0101000
-95 0 +105 0 *
Wi

0101100
-74 0 -93 0 +73 0 +103 0 *
Fa
0  1e-07 2 0

0111000
+72 0 *
Ed
 1e-07 1 1 0
1  15 0 0 20
2  33 4 0 0 20
2  34 5 0 0 20
0

0101000
-90 0 +100 0 *
Ed
 1e-07 1 1 0
1  16 0 0 20
2  35 4 0 0 20
2  36 3 0 0 20
0

0101000
-92 0 +102 0 *
Wi

0101100
-70 0 -88 0 +99 0 +69 0 *
Ve
1e-07
15 20 15
0 0

0101101
*
Ve
1e-07
5 20 15
0 0

0101101
*
Ed
 1e-07 1 1 0
1  17 0 0 10
2  37 12 0 0 10
2  38 13 0 0 10
2  39 4 0 0 10
0

0101000
-67 0 +66 0 *
Ve
1e-07
15 20 5
0 0

0101101
*
Ed
 1e-07 1 1 0
1  18 0 0 10
2  40 14 0 0 10
2  41 12 0 0 10
2  42 4 0 0 10
0

0101000
-67 0 +64 0 *
Ve
1e-07
5 20 5
0 0

0101101
*
Ed
 1e-07 1 1 0
1  19 0 0 10
2  43 12 0 0 10
2  44 15 0 0 10
2  45 4 0 0 10
0

0101000
-64 0 +62 0 *
Ed
 1e-07 1 1 0
1  20 0 0 10
2  46 16 0 0 10
2  47 12 0 0 10
2  48 4 0 0 10
0

0101000
-66 0 +62 0 *
Wi

0101100
-65 0 +63 0 +61 0 -60 0 *
Fa
0  1e-07 4 0

0101000
+68 0 +59 0 *
Wi

0101100
-61 0 -63 0 +65 0 +60 0 *
Fa
0  1e-07 12 0

0111000
+57 0 *
Wi

0101100
-98 0 -70 0 +89 0 +74 0 *
Fa
0  1e-07 5 0

0111000
+55 0 *
Wi

0101100
-101 0 -69 0 +91 0 +73 0 *
Fa
0  1e-07 3 0

0111000
+53 0 *
Sh

0101100
-96 0 +77 0 +75 0 -71 0 +58 0 +56 0 -54 0 +52 0 *
So

0100000
+51 0 *
Ve
1e-07
30 5 15
0 0

0101101
*
Ve
1e-07
30 5 5
0 0

0101101
*
Ed
 1e-07 1 1 0
1  21 0 0 10
2  49 17 0 0 10
2  50 8 0 0 10
0

0101000
-49 0 +48 0 *
Ve
1e-07
30 15 15
0 0

0101101
*
Ed
 1e-07 1 1 0
1  22 0 0 10
2  51 17 0 0 10
2  52 11 0 0 10
0

0101000
-46 0 +49 0 *
Ve
1e-07
30 15 5
0 0

0101101
*
Ed
 1e-07 1 1 0
1  23 0 0 10
2  53 17 0 0 10
2  54 10 0 0 10
0

0101000
-46 0 +44 0 *
Ed
 1e-07 1 1 0
1  24 0 0 10
2  55 17 0 0 10
2  56 9 0 0 10
0

0101000
-44 0 +48 0 *
Wi

0101100
-47 0 -45 0 +43 0 +42 0 *
Fa
0  1e-07 17 0

0111000
+41 0 *
Ed
 1e-07 1 1 0
1  25 0 0 10
2  57 8 0 0 10
2  58 9 0 0 10
0

0101000
-48 0 +85 0 *
Ed
 1e-07 1 1 0
1  26 0 0 10
2  59 8 0 0 10
2  60 11 0 0 10
0

0101000
-49 0 +86 0 *
Wi

0101100
-39 0 -47 0 +38 0 +84 0 *
Fa
0  1e-07 8 0

0111000
+37 0 *
Ed
 1e-07 1 1 0
1  27 0 0 10
2  61 10 0 0 10
2  62 9 0 0 10
0

0101000
-44 0 +83 0 *
Ed
 1e-07 1 1 0
1  28 0 0 10
2  63 10 0 0 10
2  64 11 0 0 10
0

0101000
-46 0 +81 0 *
Wi

0101100
-35 0 -43 0 +34 0 +80 0 *
Fa
0  1e-07 10 0

0111000
+33 0 *
Wi

0101100
-82 0 -35 0 +42 0 +39 0 *
Fa
0  1e-07 9 0

0111000
+31 0 *
Wi

0101100
-79 0 -34 0 +45 0 +38 0 *
Fa
0  1e-07 11 0

0111000
+29 0 *
Sh

0101100
-75 0 +40 0 -36 0 +32 0 -30 0 +28 0 *
So

0100000
+27 0 *
Ve
1e-07
5 30 15
0 0

0101101
*
Ed
 1e-07 1 1 0
1  29 0 0 10
2  65 16 0 0 10
2  66 13 0 0 10
0

0101000
-25 0 +66 0 *
Ve
1e-07
5 30 5
0 0

0101101
*
Ed
 1e-07 1 1 0
1  30 0 0 10
2  67 16 0 0 10
2  68 18 0 0 10
0

0101000
-25 0 +23 0 *
Ed
 1e-07 1 1 0
1  31 0 0 10
2  69 16 0 0 10
2  70 15 0 0 10
0

0101000
-23 0 +62 0 *
Wi

0101100
-60 0 -24 0 +22 0 +21 0 *
Fa
0  1e-07 16 0

0111000
+20 0 *
Ve
1e-07
15 30 15
0 0

0101101
*
Ed
 1e-07 1 1 0
1  32 0 0 10
2  71 14 0 0 10
2  72 13 0 0 10
0

0101000
-18 0 +67 0 *
Ve
1e-07
15 30 5
0 0

0101101
*
Ed
 1e-07 1 1 0
1  33 0 0 10
2  73 14 0 0 10
2  74 18 0 0 10
0

0101000
-18 0 +16 0 *
Ed
 1e-07 1 1 0
1  34 0 0 10
2  75 14 0 0 10
2  76 15 0 0 10
0

0101000
-16 0 +64 0 *
Wi

0101100
-63 0 -17 0 +15 0 +14 0 *
Fa
0  1e-07 14 0

0111000
+13 0 *
Ed
 1e-07 1 1 0
1  35 0 0 10
2  77 18 0 0 10
2  78 15 0 0 10
0

0101000
-16 0 +23 0 *
Ed
 1e-07 1 1 0
1  36 0 0 10
2  79 18 0 0 10
2  80 13 0 0 10
0

0101000
-18 0 +25 0 *
Wi

0101100
-11 0 -15 0 +10 0 +22 0 *
Fa
0  1e-07 18 0

0111000
+9 0 *
Wi

0101100
-21 0 -11 0 +14 0 +61 0 *
Fa
0  1e-07 15 0

0111000
+7 0 *
Wi

0101100
-24 0 -10 0 +17 0 +65 0 *
Fa
0  1e-07 13 0

0111000
+5 0 *
Sh

0101100
-19 0 +12 0 -56 0 +8 0 -6 0 +4 0 *
So

0100000
+3 0 *
Co

1100000
+50 0 +26 0 +2 0 *

+1 0 